<?xml version="1.0" standalone="no"?>
<!DOCTYPE svg PUBLIC "-//W3C//DTD SVG 20010904//EN"
 "http://www.w3.org/TR/2001/REC-SVG-20010904/DTD/svg10.dtd">
<svg version="1.0" xmlns="http://www.w3.org/2000/svg"
 width="919.000000pt" height="517.000000pt" viewBox="0 0 919.000000 517.000000"
 preserveAspectRatio="xMidYMid meet">
<metadata>
Created by potrace 1.16, written by Peter Selinger 2001-2019
</metadata>
<g transform="translate(0.000000,517.000000) scale(0.100000,-0.100000)"
fill="#000000" stroke="none">
<path d="M0 2585 l0 -2585 1873 0 c1485 0 1876 3 1886 12 11 10 13 10 7 1 -5
-9 0 -13 13 -13 13 0 21 8 23 22 4 33 35 35 49 4 9 -19 20 -26 41 -26 25 0 28
3 22 25 -5 22 -3 25 20 25 25 0 31 -8 27 -38 -2 -9 526 -12 2614 -12 l2615 0
0 1935 c0 1103 -4 1935 -9 1935 -5 0 -14 -6 -20 -14 -31 -37 -144 17 -180 87
-8 15 -18 27 -23 27 -16 0 -8 40 12 60 12 12 18 25 15 30 -3 4 0 10 6 12 6 2
-5 15 -25 28 -23 16 -36 33 -36 48 0 12 0 25 -1 30 0 4 8 9 17 11 29 6 45 26
31 41 -9 10 -9 11 2 5 10 -6 11 -2 6 16 -10 33 -15 36 -25 19 -6 -10 -10 -11
-10 -3 0 18 33 33 58 26 16 -4 22 -1 22 11 0 10 4 15 8 12 7 -4 11 48 12 181
1 22 7 46 14 52 7 6 11 22 8 36 -2 14 0 25 4 25 5 0 10 12 11 26 2 49 25 116
34 102 6 -9 9 -5 9 12 0 28 34 90 50 90 6 0 10 60 10 165 l0 165 -3712 0
c-2401 0 -3708 -4 -3698 -10 8 -5 30 -10 48 -10 17 0 32 -5 32 -10 0 -17 -31
-24 -51 -12 -10 7 -20 8 -24 2 -3 -5 -18 -7 -33 -5 -15 2 -35 4 -44 4 -11 1
-18 9 -18 21 0 20 -7 20 -845 20 l-845 0 0 -2585z m2056 2424 c6 -5 13 -6 17
-3 3 3 38 1 79 -5 40 -6 104 -13 142 -16 63 -4 98 -16 84 -30 -9 -10 -84 -7
-198 8 -63 8 -139 15 -169 16 -55 2 -91 14 -91 31 0 20 111 19 136 -1z m2706
-499 l3 -420 45 58 c29 37 44 67 45 87 0 25 5 31 25 33 19 2 46 29 100 97 l75
95 183 0 183 0 -78 -91 c-43 -51 -122 -143 -176 -206 -95 -109 -98 -115 -84
-136 8 -12 89 -123 180 -247 l165 -225 -176 -3 c-97 -1 -181 -1 -187 2 -6 2
-76 99 -155 216 l-145 211 -3 -215 -2 -216 -150 0 -150 0 0 153 c0 83 -4 157
-8 163 -4 6 -15 13 -24 17 -25 9 -22 25 5 29 l22 3 3 508 2 507 150 0 150 0 2
-420z m1025 374 c114 -85 97 -240 -32 -289 -119 -46 -251 53 -232 172 9 50 45
100 92 124 50 25 133 22 172 -7z m-3927 -179 l0 -135 -185 0 -185 0 0 -262 c0
-145 3 -273 6 -284 4 -14 12 -20 22 -17 10 2 26 -3 37 -10 17 -13 21 -13 31 2
10 12 16 13 24 5 13 -13 4 -58 -10 -49 -5 3 -11 1 -15 -5 -12 -19 -54 -11 -67
13 l-12 22 -7 -25 c-4 -14 -7 -112 -8 -217 l-1 -193 -155 0 -155 0 0 199 0
198 -52 -9 c-65 -12 -138 5 -138 32 0 34 25 42 110 36 l80 -6 0 285 0 285
-179 0 -179 0 -4 91 c-2 72 -7 93 -20 103 -10 7 -18 16 -18 20 0 4 8 18 18 31
l17 24 523 1 522 0 0 -135z m5706 -295 l-1 -430 -157 0 -158 0 0 363 c0 199 3
392 7 430 l6 67 152 0 152 0 -1 -430z m1224 295 l0 -135 -185 0 -185 0 0 -510
0 -510 -155 0 -155 0 0 510 0 510 -185 0 -185 0 0 135 0 135 525 0 525 0 0
-135z m-6665 25 c3 -5 17 -7 30 -4 12 3 26 1 30 -5 4 -7 12 -8 24 -2 17 10 32
-1 55 -38 12 -19 -14 -32 -37 -20 -10 6 -25 8 -33 5 -8 -3 -19 4 -25 16 -10
19 -13 20 -23 6 -7 -9 -23 -16 -36 -17 -14 0 -32 -1 -40 -1 -50 -3 -100 25
-100 55 0 15 146 19 155 5z m1939 -228 c4 -12 25 -22 63 -31 59 -13 150 -56
191 -88 l22 -18 -86 -102 -87 -102 -36 29 c-36 29 -106 51 -139 45 -9 -2 -30
-6 -45 -10 -46 -9 -114 -80 -133 -137 -37 -112 4 -237 96 -288 72 -40 172 -30
245 24 19 14 24 10 95 -76 41 -50 78 -97 82 -104 10 -15 -65 -64 -142 -94
-119 -46 -325 -33 -444 27 -65 33 -156 120 -189 181 -46 85 -60 153 -55 271 3
83 9 118 28 161 70 164 204 263 394 289 43 6 84 18 92 26 21 20 41 19 48 -3z
m-994 -38 c138 -38 213 -139 240 -321 5 -38 10 -186 10 -330 l0 -263 -140 0
-140 0 0 46 0 47 -20 -26 c-34 -43 -122 -79 -204 -85 -191 -12 -331 77 -355
226 -8 50 -1 126 15 166 5 13 4 17 -4 12 -16 -10 -52 25 -52 51 0 25 11 29 41
12 15 -7 24 -7 34 1 10 8 14 8 17 -1 2 -7 20 0 48 18 88 58 193 86 378 99
l103 7 -7 31 c-10 49 -22 65 -66 87 -77 39 -222 13 -295 -53 l-21 -20 -74 77
c-40 43 -73 83 -73 89 0 6 28 30 62 52 139 93 336 124 503 78z m-654 -76 c-3
-50 -6 -110 -6 -133 l0 -42 -50 5 c-106 10 -201 -46 -228 -134 -8 -28 -12
-122 -12 -288 l0 -246 -150 0 -150 0 -2 198 c-2 152 -6 197 -16 197 -14 0 -32
23 -32 43 0 8 9 12 23 10 l22 -3 3 233 2 232 145 0 c80 0 145 -3 145 -8 0 -4
17 -12 37 -19 30 -9 41 -8 60 4 41 27 97 42 157 43 l59 0 -7 -92z m4392 57
c63 -34 96 -71 128 -140 36 -77 44 -164 44 -472 l0 -283 -155 0 -155 0 0 278
c0 158 -5 293 -10 314 -6 20 -25 49 -42 63 -29 24 -39 27 -90 23 -47 -3 -64
-10 -88 -33 -54 -52 -60 -90 -60 -382 l0 -263 -150 0 -150 0 0 455 0 455 145
0 145 0 0 -60 0 -59 48 48 c70 69 132 92 247 88 77 -2 98 -7 143 -32z m-966
-112 c2 -71 2 -275 0 -455 l-3 -328 -150 0 -149 0 0 455 0 455 149 0 150 0 3
-127z m-5554 -270 c58 -43 66 -100 21 -142 -42 -39 -186 -36 -219 4 -6 8 -14
32 -17 54 -5 36 -2 44 31 77 35 35 38 36 96 32 40 -3 70 -11 88 -25z m463 -4
c21 -11 25 -34 8 -45 -25 -15 -153 -34 -163 -24 -6 6 -17 10 -25 10 -9 0 -26
8 -38 18 -29 22 -17 42 33 53 46 9 159 2 185 -12z m1418 -66 c9 -17 10 -17 16
-1 5 13 21 16 86 16 71 -1 80 -3 94 -24 16 -25 20 -53 8 -55 -5 -1 -55 -2
-112 -3 -112 -1 -131 6 -131 48 0 38 22 49 39 19z m5344 -149 c139 -92 67
-313 -103 -314 -78 0 -161 68 -176 145 -14 75 45 172 119 194 48 15 116 4 160
-25z m-1225 -449 c28 -13 52 -28 52 -33 0 -4 -18 -25 -39 -46 -38 -37 -40 -38
-62 -22 -14 9 -43 16 -71 16 -42 0 -50 -3 -60 -25 -15 -33 0 -50 65 -71 151
-48 199 -126 145 -234 -17 -33 -35 -51 -68 -67 -77 -40 -215 -26 -279 28 l-25
20 41 40 40 41 34 -21 c38 -23 118 -28 137 -9 19 19 14 56 -10 72 -13 8 -50
22 -83 33 -135 42 -175 161 -84 253 56 56 177 67 267 25z m-4888 -137 c29 -84
56 -156 59 -160 4 -4 30 64 60 152 l52 160 90 0 89 0 0 -255 0 -255 -60 0 -60
0 -2 166 -3 166 -60 -164 -60 -163 -46 -3 -47 -3 -26 73 c-15 40 -42 116 -61
168 l-34 95 -1 -167 0 -168 -60 0 -60 0 0 255 0 255 89 0 89 0 52 -152z m4270
47 l0 -45 40 0 40 0 0 -45 0 -45 -40 0 -41 0 3 -87 3 -88 38 -3 38 -3 -3 -47
-3 -47 -62 -3 c-56 -3 -65 0 -95 27 l-33 29 -3 111 -4 111 -29 0 c-28 0 -29 2
-29 45 0 43 1 45 30 45 29 0 30 2 30 45 l0 45 60 0 60 0 0 -45z m1610 0 l0
-45 40 0 40 0 0 -45 0 -45 -40 0 -41 0 3 -87 3 -88 38 -3 38 -3 -3 -47 -3 -47
-54 -3 c-113 -7 -141 28 -141 177 l0 101 -30 0 c-29 0 -30 2 -30 45 0 43 1 45
30 45 29 0 30 2 30 45 l0 45 60 0 60 0 0 -45z m-3472 -41 c69 -11 138 -107
130 -185 l-3 -34 -128 -3 c-121 -2 -127 -3 -117 -21 12 -23 70 -44 96 -35 10
4 26 13 36 21 14 13 21 12 57 -9 48 -27 50 -39 15 -67 -39 -31 -90 -44 -154
-39 -116 8 -189 92 -177 205 7 65 31 106 89 148 44 33 55 34 156 19z m-1712
-10 c57 -27 74 -78 74 -227 l0 -127 -55 0 c-43 0 -55 3 -55 15 0 13 -6 11 -29
-6 -25 -18 -39 -21 -87 -17 -49 4 -62 10 -86 37 -35 39 -38 95 -7 134 23 31
101 57 166 57 47 0 53 10 23 40 -24 24 -64 26 -104 5 -29 -15 -31 -15 -60 15
-28 27 -29 31 -15 46 42 41 173 57 235 28z m454 0 c52 -32 60 -58 60 -213 l0
-141 -60 0 -60 0 0 116 c0 131 -8 154 -50 154 -49 0 -60 -28 -60 -157 l0 -113
-60 0 -60 0 0 180 0 180 55 0 c48 0 55 -2 55 -20 0 -18 2 -18 36 5 43 29 103
33 144 9z m396 0 c57 -27 74 -78 74 -227 l0 -127 -55 0 c-43 0 -55 3 -55 15 0
13 -6 11 -29 -6 -25 -18 -39 -21 -87 -17 -49 4 -62 10 -86 37 -35 39 -38 95
-7 134 23 31 101 57 166 57 47 0 53 10 23 40 -24 24 -64 26 -104 5 -29 -15
-31 -15 -60 15 -28 27 -29 31 -15 46 42 41 173 57 235 28z m398 -9 c34 -23 36
-23 36 -5 0 18 7 20 55 20 l55 0 0 -191 c0 -170 -2 -195 -21 -238 -15 -35 -31
-54 -61 -71 -74 -41 -221 -37 -291 9 l-27 17 31 42 30 41 37 -19 c36 -20 104
-26 137 -14 19 8 45 55 45 83 0 20 0 20 -35 -1 -47 -27 -127 -22 -175 12 -67
48 -90 163 -49 247 42 87 156 120 233 68z m956 10 c15 -8 30 -20 32 -26 2 -7
18 -1 42 15 66 44 150 31 192 -31 16 -24 20 -51 22 -170 l4 -143 -61 0 -61 0
0 113 c0 124 -12 157 -55 157 -43 0 -55 -33 -55 -157 l0 -113 -60 0 -60 0 0
113 c0 128 -12 160 -58 155 -41 -5 -52 -39 -52 -160 l0 -108 -60 0 -60 0 0
180 0 180 60 0 c46 0 60 -3 60 -15 0 -12 6 -11 33 5 38 24 97 26 137 5z m623
1 c65 -28 107 -98 107 -177 l0 -39 -132 0 -131 0 22 -24 c33 -35 66 -40 113
-17 l40 20 39 -26 c38 -25 39 -27 22 -46 -79 -87 -256 -73 -321 26 -47 71 -33
185 30 244 56 52 142 69 211 39z m482 -8 c45 -35 55 -74 55 -218 l0 -130 -59
0 -59 0 -3 118 c-4 126 -13 152 -52 152 -11 0 -29 -7 -39 -17 -15 -14 -18 -32
-18 -135 l0 -118 -65 0 -65 0 0 180 0 180 60 0 c54 0 60 -2 60 -21 0 -20 1
-20 31 5 40 34 113 36 154 4z m1633 2 c23 -10 42 -25 42 -33 0 -7 -13 -26 -29
-41 -28 -27 -30 -27 -54 -11 -30 19 -92 17 -92 -4 0 -17 18 -28 74 -42 85 -21
123 -90 89 -164 -28 -63 -154 -85 -249 -44 -27 12 -49 25 -49 28 0 4 15 22 34
40 33 32 35 32 59 16 35 -23 92 -17 92 10 0 15 -15 24 -65 41 -75 26 -100 52
-100 103 0 101 131 154 248 101z m659 -6 c40 -30 71 -91 75 -149 l3 -50 -127
-3 c-71 -1 -128 -6 -128 -11 0 -13 34 -39 60 -46 16 -3 40 2 65 15 l39 20 39
-26 39 -26 -24 -25 c-72 -79 -228 -70 -302 17 -14 17 -29 44 -32 58 -3 15 -7
33 -10 40 -2 7 1 35 7 63 12 57 51 107 101 133 47 24 157 18 195 -10z m449 2
l28 -23 34 23 c25 17 49 24 84 24 41 0 54 -5 86 -34 l37 -34 3 -151 3 -151
-60 0 -61 0 0 113 c0 86 -4 118 -16 135 -19 28 -45 28 -70 1 -16 -18 -20 -40
-22 -135 l-4 -114 -59 0 -59 0 0 108 c0 59 -3 117 -6 130 -9 30 -49 40 -74 17
-18 -16 -20 -32 -20 -137 l0 -118 -65 0 -65 0 0 180 0 180 60 0 c55 0 60 -2
60 -22 0 -19 2 -20 13 -6 35 45 129 53 173 14z m-1619 -97 l40 -111 34 111 34
111 66 0 67 0 -88 -225 c-49 -123 -95 -234 -104 -246 -29 -42 -67 -59 -133
-59 -70 0 -72 3 -57 80 6 25 11 31 26 26 33 -8 65 10 76 44 10 28 4 47 -59
198 -39 92 -73 170 -76 175 -2 4 27 7 65 7 l70 0 39 -111z m-3367 -704 c17
-30 35 -57 41 -60 5 -4 9 -11 9 -18 0 -6 -7 -2 -15 9 -14 19 -14 19 -9 -1 8
-31 -31 -75 -67 -75 -28 0 -29 -2 -29 -45 0 -25 -3 -45 -6 -45 -3 0 -19 14
-36 30 -47 47 -78 37 -78 -25 0 -13 -4 -27 -10 -30 -5 -3 -12 -28 -16 -55 -4
-30 -12 -50 -19 -50 -9 0 -10 12 -4 48 5 26 11 53 14 60 2 7 -7 18 -21 24 -22
10 -27 9 -35 -5 -6 -9 -19 -17 -29 -17 -11 0 -20 -4 -20 -10 0 -5 16 -10 35
-10 47 0 45 -18 -2 -22 -33 -3 -39 -7 -43 -32 -3 -16 -11 -31 -18 -34 -13 -4
-13 -2 3 71 3 17 1 35 -7 45 -11 13 -11 14 0 8 9 -5 15 -1 19 13 8 30 92 31
111 1 7 -12 17 -18 23 -14 8 4 7 9 -2 14 -9 6 -9 12 4 25 10 9 17 20 17 25 0
4 11 10 25 12 17 4 31 -2 46 -18 13 -13 26 -24 29 -24 4 0 7 46 7 103 0 82 3
108 18 130 9 15 21 27 25 27 5 0 23 -25 40 -55z m274 -36 c11 -1 35 0 52 1 40
2 47 -9 38 -65 -8 -57 -27 -59 -22 -2 3 36 0 42 -18 45 -22 3 -34 -19 -34 -65
0 -12 -5 -23 -11 -25 -6 -2 -8 -14 -4 -31 5 -20 13 -27 31 -27 13 0 24 -4 24
-10 0 -5 -11 -10 -25 -10 -14 0 -25 -5 -25 -11 0 -8 -4 -9 -13 0 -16 13 -27 5
-27 -21 0 -14 8 -18 35 -18 19 0 35 -4 35 -10 0 -5 -18 -10 -40 -10 -35 0 -40
-3 -40 -22 0 -13 -4 -30 -10 -38 -18 -29 -21 0 -6 76 10 57 11 84 4 98 -10 19
-11 19 -24 1 -8 -10 -17 -15 -21 -12 -4 4 1 15 11 25 16 16 18 16 41 -10 34
-40 43 -35 34 20 -10 60 -9 98 1 57 l8 -30 1 37 c1 32 -1 36 -20 31 -21 -6
-23 -9 -33 -55 -10 -43 -28 -34 -21 10 11 60 16 72 30 72 11 0 14 11 10 48
l-4 47 10 -47 c9 -38 15 -48 33 -49z m-850 51 c17 -6 26 -6 26 0 0 19 16 10
33 -20 14 -24 25 -30 51 -30 17 0 37 -5 44 -12 19 -19 14 -49 -8 -55 -11 -3
-20 -9 -20 -14 0 -5 7 -6 16 -2 13 5 15 2 10 -15 -4 -12 -2 -32 4 -44 11 -22
10 -22 -4 -4 -9 11 -16 23 -16 27 0 4 -14 9 -31 11 -42 4 -57 28 -43 66 7 19
8 35 2 46 -15 27 -26 10 -33 -54 -7 -57 -8 -60 -35 -60 -16 0 -30 -6 -33 -12
-5 -14 -46 29 -47 48 0 23 -61 94 -79 94 -11 0 -23 5 -27 12 -5 8 -2 9 10 5
10 -4 24 -7 31 -7 8 0 25 -16 38 -35 23 -34 25 -34 40 -17 10 10 17 33 17 50
0 35 11 39 54 22z m3132 -281 c39 -32 -4 -103 -59 -97 -28 3 -32 0 -35 -24 -2
-21 1 -28 13 -28 11 0 15 -6 11 -17 -3 -10 -10 -48 -16 -84 l-11 -66 -41 -1
c-23 -1 -47 3 -54 9 -19 15 -18 49 2 77 13 19 24 23 53 20 33 -3 36 -1 39 25
2 19 -1 27 -12 27 -8 0 -14 6 -11 13 2 6 9 44 15 83 l11 71 41 1 c23 1 47 -3
54 -9z m664 -193 c0 -8 8 -17 18 -19 14 -4 14 -6 -5 -12 -31 -10 -33 -65 -3
-65 14 0 20 7 20 23 0 50 78 77 103 36 18 -29 1 -49 -43 -49 -28 0 -39 -4 -34
-11 4 -7 21 -9 40 -6 19 3 34 2 34 -3 0 -10 -25 -20 -51 -20 -11 0 -31 -7 -44
-16 -22 -14 -26 -14 -50 3 -22 16 -25 23 -20 57 3 22 1 44 -6 52 -9 11 -8 14
5 14 9 0 16 7 16 15 0 8 5 15 10 15 6 0 10 -6 10 -14z m-725 -461 c38 0 40 -2
40 -30 0 -28 -3 -30 -45 -36 -33 -4 -40 -7 -27 -13 9 -5 28 -5 42 -2 27 7 35
-8 9 -18 -52 -20 -90 5 -80 54 5 25 2 30 -14 30 -23 0 -40 -28 -40 -64 0 -15
-6 -26 -13 -26 -9 0 -12 11 -9 35 3 29 1 34 -12 29 -8 -3 -18 -22 -22 -42 -10
-59 -29 -82 -68 -82 -34 0 -66 23 -47 34 5 4 12 2 16 -4 11 -17 54 -11 65 9
14 28 14 28 -22 23 -53 -8 -78 48 -38 88 22 22 110 29 110 9 0 -5 5 -7 11 -3
7 4 26 9 43 11 17 2 33 8 35 15 3 8 7 7 15 -3 6 -8 28 -14 51 -14z m-530 -11
c12 -13 15 -27 9 -58 -3 -22 -10 -49 -16 -58 -10 -20 -63 -25 -74 -6 -5 7 -10
4 -15 -10 -15 -41 -25 -22 -22 41 6 86 16 103 63 105 24 1 45 -4 55 -14z
m4025 -1046 l0 -282 -52 -53 -52 -53 -4498 0 -4498 0 0 282 0 282 52 53 52 53
4498 0 4498 0 0 -282z"/>
<path d="M2855 3926 c-69 -14 -99 -30 -114 -63 -38 -83 29 -142 147 -130 90 9
142 62 150 149 l4 53 -63 1 c-35 1 -91 -4 -124 -10z"/>
<path d="M3235 3145 c-52 -52 -16 -149 55 -147 76 2 112 100 55 149 -35 30
-79 30 -110 -2z"/>
<path d="M2470 529 l0 -91 -34 21 c-40 25 -76 27 -122 5 -43 -21 -64 -59 -64
-119 0 -60 21 -98 64 -119 46 -22 82 -20 122 5 29 17 34 18 34 5 0 -9 7 -16
15 -16 13 0 15 29 15 200 0 171 -2 200 -15 200 -12 0 -15 -17 -15 -91z m-29
-108 c57 -57 30 -162 -45 -177 -79 -14 -135 63 -105 143 26 67 100 84 150 34z"/>
<path d="M4410 530 l0 -89 -35 21 c-49 29 -107 20 -149 -21 -28 -29 -31 -37
-31 -96 0 -59 3 -67 31 -96 42 -41 100 -50 149 -21 28 17 35 18 35 7 0 -8 9
-15 20 -15 19 0 20 7 20 200 0 193 -1 200 -20 200 -19 0 -20 -7 -20 -90z m-37
-100 c38 -30 52 -80 34 -123 -30 -70 -94 -87 -149 -39 -27 25 -31 36 -31 77 0
41 4 52 31 77 38 33 79 36 115 8z"/>
<path d="M4670 420 c0 -193 1 -200 20 -200 11 0 20 7 20 15 0 11 7 10 35 -7
49 -29 107 -20 149 21 28 29 31 37 31 96 0 59 -3 67 -31 96 -42 41 -100 50
-149 21 l-35 -21 0 89 c0 83 -1 90 -20 90 -19 0 -20 -7 -20 -200z m192 2 c27
-25 31 -36 31 -77 0 -41 -4 -52 -31 -77 -38 -33 -79 -36 -115 -8 -38 30 -52
80 -34 123 30 70 94 87 149 39z"/>
<path d="M490 410 c0 -160 2 -190 15 -190 11 0 15 19 17 88 l3 87 65 6 c80 7
97 14 115 50 19 36 19 62 0 98 -18 37 -60 51 -146 51 l-69 0 0 -190z m170 135
c23 -21 26 -63 6 -90 -10 -14 -30 -20 -80 -23 l-66 -4 0 64 c0 36 3 68 8 72
13 14 111 0 132 -19z"/>
<path d="M1970 505 c0 -31 -3 -35 -25 -35 -16 0 -25 -6 -25 -15 0 -9 9 -15 25
-15 25 0 25 0 25 -93 0 -106 11 -127 68 -127 25 0 32 4 32 19 0 15 -5 18 -21
14 -35 -10 -49 21 -49 109 l0 78 35 0 c24 0 35 5 35 15 0 10 -11 15 -35 15
-33 0 -35 2 -35 35 0 24 -5 35 -15 35 -10 0 -15 -11 -15 -35z"/>
<path d="M993 460 c-112 -68 -63 -250 67 -250 71 0 130 61 130 135 0 104 -110
169 -197 115z m128 -39 c24 -24 29 -38 29 -76 0 -119 -143 -143 -180 -31 -9
27 -8 42 3 69 30 71 98 88 148 38z"/>
<path d="M1443 460 c-59 -35 -78 -105 -49 -175 17 -40 68 -75 109 -75 35 0 93
26 101 45 9 24 -13 27 -40 6 -15 -12 -39 -21 -55 -21 -33 0 -89 44 -89 71 0
17 8 19 100 19 l100 0 0 30 c0 94 -97 149 -177 100z"/>
<path d="M1755 466 c-45 -19 -69 -62 -69 -121 0 -60 24 -102 71 -121 45 -19
82 -17 121 6 27 17 32 23 22 35 -10 12 -16 11 -40 -7 -40 -29 -94 -18 -121 25
-28 45 -21 113 16 144 30 26 72 30 101 8 25 -19 44 -19 44 0 0 19 -51 45 -87
45 -15 -1 -42 -7 -58 -14z"/>
<path d="M2643 460 c-59 -35 -78 -105 -49 -175 17 -40 68 -75 109 -75 35 0 93
26 101 45 9 24 -13 27 -40 6 -15 -12 -39 -21 -55 -21 -33 0 -89 44 -89 71 0
17 8 19 100 19 l100 0 0 30 c0 94 -97 149 -177 100z"/>
<path d="M2922 468 c-42 -21 -43 -94 -2 -115 14 -6 43 -20 65 -30 44 -20 54
-42 30 -67 -22 -22 -67 -20 -97 4 -26 20 -38 18 -38 -7 0 -17 59 -43 98 -43
43 0 82 35 82 73 0 45 -9 54 -76 80 -61 24 -76 45 -54 72 18 21 60 18 85 -5
18 -17 24 -18 33 -7 28 34 -75 71 -126 45z"/>
<path d="M3324 470 c-11 -4 -33 -22 -47 -40 -50 -59 -30 -162 39 -195 43 -20
83 -19 122 5 l32 20 0 -40 c0 -59 -35 -95 -93 -95 -31 0 -55 7 -76 22 -30 23
-48 17 -38 -11 8 -20 71 -46 114 -46 44 0 96 28 114 62 8 14 14 79 17 171 4
145 4 147 -17 147 -12 0 -21 -6 -21 -15 0 -12 -6 -11 -32 5 -34 21 -78 25
-114 10z m105 -36 c30 -21 51 -71 44 -107 -7 -34 -56 -77 -88 -77 -58 0 -98
41 -98 100 0 80 80 127 142 84z"/>
<path d="M3663 460 c-27 -16 -33 -17 -33 -5 0 8 -7 15 -15 15 -13 0 -15 -21
-15 -125 0 -100 3 -125 14 -125 11 0 15 21 18 89 3 78 6 93 27 115 30 32 71
34 97 5 15 -17 20 -40 22 -115 3 -72 7 -94 18 -94 11 0 14 20 14 95 0 104 -10
137 -47 154 -35 16 -64 14 -100 -9z"/>
<path d="M3965 470 c-64 -26 -95 -123 -61 -189 31 -59 106 -87 159 -60 43 22
58 41 45 56 -9 11 -14 10 -30 -7 -43 -46 -126 -30 -146 29 l-11 31 105 0 104
0 0 25 c0 89 -85 149 -165 115z"/>
<path d="M4980 446 c5 -14 27 -67 49 -120 47 -108 47 -112 24 -161 -12 -25
-26 -38 -45 -42 -15 -3 -28 -12 -28 -19 0 -22 56 -17 78 7 11 11 49 95 85 187
52 132 62 168 50 170 -21 5 -21 5 -62 -109 l-38 -102 -42 107 c-33 82 -47 106
-62 106 -15 0 -17 -4 -9 -24z"/>
</g>
</svg>
