<?xml version="1.0" standalone="no"?>
<!DOCTYPE svg PUBLIC "-//W3C//DTD SVG 20010904//EN"
 "http://www.w3.org/TR/2001/REC-SVG-20010904/DTD/svg10.dtd">
<svg version="1.0" xmlns="http://www.w3.org/2000/svg"
 width="1898.000000pt" height="939.000000pt" viewBox="0 0 1898.000000 939.000000"
 preserveAspectRatio="xMidYMid meet">
<metadata>
Created by potrace 1.16, written by Peter Selinger 2001-2019
</metadata>
<g transform="translate(0.000000,939.000000) scale(0.100000,-0.100000)"
fill="#000000" stroke="none">
<path d="M0 4695 l0 -4695 8378 0 c6318 0 8381 3 8390 12 8 8 15 8 25 0 10 -8
276 -11 979 -11 837 0 968 2 978 14 16 19 54 19 70 0 9 -11 33 -15 86 -15 l74
0 0 470 0 470 -40 0 c-22 0 -40 5 -40 10 0 6 18 10 40 10 l40 0 0 3565 c0
2975 -2 3564 -13 3559 -8 -3 -20 2 -27 11 -11 13 -9 15 14 15 l26 0 0 640 0
640 -9490 0 -9490 0 0 -4695z m195 4653 c24 -11 25 -15 25 -88 0 -73 -1 -77
-27 -89 -24 -11 -29 -9 -63 24 -37 36 -38 37 -63 20 -36 -23 -47 -12 -47 45 0
57 11 68 47 45 25 -17 26 -17 62 19 19 20 37 36 38 36 1 0 14 -5 28 -12z
m5485 -388 l0 -60 -70 0 -70 0 0 60 0 60 70 0 70 0 0 -60z m11190 -620 l0
-120 -110 0 -110 0 0 120 0 120 110 0 110 0 0 -120z m-4400 -1509 c0 -996 -3
-1512 -10 -1516 -13 -8 -13 -52 0 -60 16 -10 14 -2987 -2 -3003 -16 -16 -5623
-18 -5633 -2 -8 13 -52 13 -60 0 -4 -7 -957 -10 -2826 -10 l-2819 0 0 3050 0
3050 5675 0 5675 0 0 -1509z m-11910 1309 l0 -70 -70 0 -70 0 0 70 0 70 70 0
70 0 0 -70z m13660 -450 l0 -60 -70 0 -70 0 0 60 0 60 70 0 70 0 0 -60z
m-13660 -180 l0 -70 -60 0 -60 0 0 40 c0 22 -4 40 -10 40 -5 0 -10 14 -10 30
l0 30 70 0 70 0 0 -70z m13840 -540 l0 -60 -70 0 -70 0 0 60 0 60 70 0 70 0 0
-60z m-13840 -295 l0 -65 -65 0 -65 0 0 65 0 65 65 0 65 0 0 -65z m-16 -807
c36 -51 7 -108 -54 -108 -29 0 -43 6 -54 22 -36 51 -7 108 54 108 29 0 43 -6
54 -22z m16 -1088 l0 -60 -70 0 -70 0 0 60 0 60 70 0 70 0 0 -60z m-10 -420
l0 -70 -60 0 -60 0 0 70 0 70 60 0 60 0 0 -70z m10 -2095 l0 -65 -65 0 -65 0
0 65 0 65 65 0 65 0 0 -65z m0 -635 l0 -60 -32 0 c-50 0 -83 11 -66 21 10 7
10 9 -3 9 -24 0 -30 -11 -16 -28 10 -13 9 -14 -3 -10 -11 3 -16 22 -18 66 l-3
62 71 0 70 0 0 -60z m0 -210 l0 -60 -70 0 -70 0 0 60 0 60 70 0 70 0 0 -60z
m0 -205 l0 -65 -65 0 -65 0 0 65 0 65 65 0 65 0 0 -65z m0 -210 l0 -65 -70 0
-70 0 0 65 0 65 70 0 70 0 0 -65z m14673 -50 c8 -7 18 -30 21 -49 4 -18 13
-39 21 -46 29 -24 14 -30 -80 -30 -78 0 -95 3 -95 15 0 8 4 15 10 15 5 0 15
19 21 43 7 23 17 48 22 55 13 17 62 15 80 -3z m-14673 -160 l0 -65 -70 0 -70
0 0 65 0 65 70 0 70 0 0 -65z"/>
<path d="M16660 8340 l0 -110 100 0 100 0 0 110 0 110 -100 0 -100 0 0 -110z"/>
<path d="M4290 6535 l0 -765 1325 0 1325 0 0 765 0 765 -1325 0 -1325 0 0
-765z m1475 610 c39 -8 106 -32 150 -54 196 -98 327 -268 342 -447 l6 -61 -89
-11 c-49 -6 -115 -14 -146 -18 l-57 -7 -10 40 c-15 54 -60 118 -111 159 -44
35 -135 74 -173 74 -48 0 -50 7 -43 161 4 79 10 152 12 162 6 21 27 21 119 2z
m-311 -144 c25 -71 46 -142 46 -158 0 -26 -6 -32 -56 -52 -99 -42 -194 -161
-194 -245 l0 -36 -52 0 c-29 0 -97 3 -150 7 l-98 6 0 42 c0 213 136 418 345
521 50 24 95 44 101 44 6 0 32 -58 58 -129z m601 -667 l125 -66 -32 -44 c-36
-50 -72 -85 -140 -133 -38 -27 -48 -40 -48 -62 0 -24 -8 -32 -64 -58 -34 -17
-93 -38 -131 -46 -67 -16 -255 -23 -275 -10 -5 3 -10 17 -10 30 0 21 43 235
56 276 3 13 23 17 89 21 105 7 189 44 255 112 25 25 46 46 47 46 2 0 59 -30
128 -66z"/>
<path d="M4350 5445 c0 -87 3 -105 15 -105 11 0 15 12 15 46 0 57 18 55 38 -4
16 -48 47 -60 36 -14 -4 15 -10 36 -14 47 -5 13 -2 25 6 33 19 17 18 67 -2 86
-9 9 -32 16 -55 16 l-39 0 0 -105z"/>
<path d="M5700 5445 c0 -87 3 -105 15 -105 11 0 15 12 15 46 0 57 18 55 38 -4
16 -48 47 -60 36 -14 -4 15 -10 36 -14 47 -5 13 -2 25 6 33 19 17 18 67 -2 86
-9 9 -32 16 -55 16 l-39 0 0 -105z"/>
<path d="M1940 5405 l0 -105 34 0 c64 0 66 3 66 105 0 102 -2 105 -66 105
l-34 0 0 -105z"/>
<path d="M2410 5405 l0 -105 40 0 c46 0 60 18 60 75 0 46 -15 75 -40 75 -16 0
-20 7 -20 30 0 23 -4 30 -20 30 -19 0 -20 -7 -20 -105z"/>
<path d="M3046 5488 c-10 -14 -16 -44 -16 -83 0 -69 19 -105 55 -105 42 0 55
25 55 101 0 39 -5 79 -10 90 -15 27 -64 25 -84 -3z"/>
<path d="M5930 5385 c0 -98 1 -105 20 -105 16 0 20 7 20 30 0 23 4 30 20 30
25 0 40 29 40 75 0 57 -14 75 -60 75 l-40 0 0 -105z"/>
<path d="M4210 5225 c0 -13 -172 -15 -1489 -15 -1182 0 -1490 3 -1494 13 -3 6
-6 -448 -6 -1010 l-1 -1023 1500 0 1500 0 0 1025 c0 564 -2 1025 -5 1025 -3 0
-5 -7 -5 -15z m0 -220 l0 -195 -1490 0 -1490 0 0 195 0 195 1490 0 1490 0 0
-195z m0 -400 l0 -195 -1490 0 -1490 0 0 195 0 195 1490 0 1490 0 0 -195z m0
-400 l0 -195 -1490 0 -1490 0 0 195 0 195 1490 0 1490 0 0 -195z m0 -395 l0
-190 -1490 0 -1490 0 0 190 0 190 1490 0 1490 0 0 -190z m0 -405 l0 -205
-1490 0 -1490 0 0 205 0 205 1490 0 1490 0 0 -205z"/>
<path d="M2580 4996 c0 -86 3 -106 15 -106 10 0 15 15 17 58 l3 57 13 -42 c7
-24 17 -43 22 -43 4 0 15 19 23 43 l15 42 1 -57 c1 -45 4 -58 16 -58 12 0 15
18 15 105 0 86 -3 105 -15 105 -9 0 -21 -23 -34 -62 -20 -66 -22 -65 -44 12
-8 28 -19 46 -30 48 -15 3 -17 -8 -17 -102z"/>
<path d="M3111 5027 c-6 -6 -11 -34 -11 -63 0 -54 17 -81 45 -70 10 4 15 -1
15 -14 0 -11 -7 -20 -15 -20 -8 0 -15 5 -15 10 0 6 -7 10 -15 10 -18 0 -18 -5
-5 -31 11 -19 35 -24 64 -13 13 5 16 24 16 104 l0 98 -34 0 c-19 0 -39 -5 -45
-11z"/>
<path d="M3330 4964 c0 -67 2 -74 20 -74 18 0 20 7 20 61 0 81 24 77 28 -4 2
-42 7 -57 17 -57 12 0 15 14 15 60 0 47 3 60 15 60 12 0 15 -13 15 -60 0 -47
3 -60 15 -60 20 0 22 125 3 137 -7 4 -43 8 -80 10 l-68 1 0 -74z"/>
<path d="M2420 4596 c0 -86 3 -106 15 -106 10 0 15 15 17 58 l3 57 13 -42 c7
-24 17 -43 22 -43 4 0 15 19 23 43 l15 42 1 -57 c1 -45 4 -58 16 -58 12 0 15
18 15 105 0 86 -3 105 -15 105 -9 0 -21 -23 -34 -62 -20 -66 -22 -65 -44 12
-8 28 -19 46 -30 48 -15 3 -17 -8 -17 -102z"/>
<path d="M2951 4627 c-6 -6 -11 -34 -11 -63 0 -54 17 -81 45 -70 10 4 15 -1
15 -14 0 -11 -7 -20 -15 -20 -8 0 -15 5 -15 10 0 6 -7 10 -15 10 -18 0 -18 -5
-5 -31 11 -19 35 -24 64 -13 13 5 16 24 16 104 l0 98 -34 0 c-19 0 -39 -5 -45
-11z"/>
<path d="M3170 4564 c0 -67 2 -74 20 -74 18 0 20 7 20 61 0 81 24 77 28 -4 2
-42 7 -57 17 -57 12 0 15 14 15 60 0 47 3 60 15 60 12 0 15 -13 15 -60 0 -47
3 -60 15 -60 20 0 22 125 3 137 -7 4 -43 8 -80 10 l-68 1 0 -74z"/>
<path d="M1940 4195 c0 -87 3 -105 15 -105 11 0 15 12 15 46 0 57 18 55 38 -4
16 -48 47 -60 36 -14 -4 15 -10 36 -14 47 -5 13 -2 25 6 33 19 17 18 67 -2 86
-9 9 -32 16 -55 16 l-39 0 0 -105z"/>
<path d="M2170 4135 c0 -98 1 -105 20 -105 16 0 20 7 20 30 0 23 4 30 20 30
25 0 40 29 40 75 0 57 -14 75 -60 75 l-40 0 0 -105z"/>
<path d="M2190 3764 c0 -67 2 -74 20 -74 18 0 20 7 20 61 0 81 24 77 28 -4 2
-42 7 -57 17 -57 12 0 15 14 15 60 0 47 3 60 15 60 12 0 15 -13 15 -60 0 -47
3 -60 15 -60 20 0 22 125 3 137 -7 4 -43 8 -80 10 l-68 1 0 -74z"/>
<path d="M1940 3406 c0 -86 3 -106 15 -106 10 0 15 15 17 58 l3 57 13 -42 c7
-24 17 -43 22 -43 4 0 15 19 23 43 l15 42 1 -57 c1 -45 4 -58 16 -58 12 0 15
18 15 105 0 86 -3 105 -15 105 -9 0 -21 -23 -34 -62 -20 -66 -22 -65 -44 12
-8 28 -19 46 -30 48 -15 3 -17 -8 -17 -102z"/>
<path d="M2270 3405 c0 -87 3 -105 15 -105 11 0 15 11 15 40 0 35 3 40 23 40
39 0 52 16 52 65 0 53 -12 65 -67 65 l-38 0 0 -105z"/>
<path d="M6800 2596 l0 -76 35 0 c66 0 109 74 72 124 -8 11 -31 20 -60 23
l-47 6 0 -77z"/>
<path d="M9695 2645 c-14 -13 -25 -36 -25 -50 0 -31 41 -75 70 -75 29 0 70 44
70 75 0 31 -41 75 -70 75 -11 0 -32 -11 -45 -25z"/>
</g>
</svg>
