<?xml version="1.0" encoding="UTF-8" standalone="no"?>
<!DOCTYPE svg PUBLIC "-//W3C//DTD SVG 1.1//EN" "http://www.w3.org/Graphics/SVG/1.1/DTD/svg11.dtd">
<svg xmlns="http://www.w3.org/2000/svg" version="1.1" viewBox="0 0 720 1280" width="720.0pt" height="1280.0pt" xmlns:xlink="http://www.w3.org/1999/xlink">
<defs>
<path d="M 0.00 0.00 L 720.00 0.00 L 720.00 1257.81 C 708.15 1245.66 697.27 1232.69 686.05 1219.96 C 674.89 1207.24 662.36 1195.95 647.82 1187.19 C 628.77 1175.56 607.10 1169.02 584.90 1167.25 C 579.32 1166.96 574.89 1165.55 569.96 1163.05 C 570.91 1164.09 571.88 1165.12 572.84 1166.15 C 564.05 1166.42 554.90 1165.77 546.22 1167.21 C 534.21 1169.32 524.19 1176.24 516.39 1185.39 C 509.37 1193.76 503.82 1203.53 499.55 1213.56 C 493.08 1228.46 488.83 1244.66 485.55 1260.53 C 484.17 1266.99 483.47 1273.60 481.87 1280.00 L 432.99 1280.00 C 434.50 1273.18 435.04 1266.14 436.18 1259.25 C 439.60 1238.26 443.39 1216.97 451.01 1197.04 C 454.95 1186.79 459.64 1177.13 466.36 1168.37 C 469.57 1164.18 473.42 1160.74 476.89 1156.77 C 472.55 1159.81 468.88 1163.44 465.68 1167.65 C 456.63 1179.29 451.04 1192.56 446.53 1206.48 C 439.12 1230.24 435.34 1255.37 432.11 1280.00 L 0.00 1280.00 L 0.00 432.45 C 5.23 414.90 8.98 396.90 13.05 379.06 C 18.12 353.87 22.94 328.10 24.74 302.46 C 26.41 284.75 26.04 266.76 25.39 249.00 C 23.57 216.90 17.85 185.13 8.72 154.32 C 6.21 145.50 3.36 136.90 0.00 128.37 L 0.00 0.00 Z M 111.33 38.90 C 111.62 39.82 111.94 40.72 112.29 41.62 C 113.27 41.91 114.26 42.16 115.26 42.38 C 115.35 41.27 115.43 40.16 115.52 39.05 C 114.12 38.99 112.73 38.94 111.33 38.90 Z M 56.22 60.97 C 58.74 60.82 61.23 60.80 63.75 60.92 C 61.02 57.78 61.56 54.82 61.78 50.92 C 65.63 52.82 67.08 56.21 69.68 59.31 C 70.82 61.19 74.10 60.67 76.02 61.09 C 72.63 58.42 70.07 55.12 67.43 51.75 C 69.30 49.81 71.86 48.10 71.72 45.10 C 71.67 42.68 69.88 40.93 67.56 40.56 C 63.91 40.01 60.13 40.24 56.44 40.06 C 57.35 41.74 58.56 42.92 58.57 44.94 C 58.69 49.22 58.85 53.61 58.43 57.88 C 57.81 58.96 56.99 59.97 56.22 60.97 Z M 184.55 54.05 C 184.41 56.08 184.33 58.11 184.25 60.15 C 187.96 60.94 191.71 62.04 195.38 60.38 C 198.68 58.92 199.98 54.31 197.47 51.58 C 194.86 49.28 190.66 48.89 187.99 46.67 C 186.89 44.12 187.65 41.98 190.52 41.43 C 194.46 40.50 195.47 43.72 197.57 46.17 C 197.60 44.22 197.62 42.28 197.63 40.33 C 194.55 40.04 190.59 39.09 187.79 40.74 C 184.67 42.43 183.74 47.06 186.52 49.49 C 188.97 51.17 192.19 51.76 194.66 53.41 C 196.23 54.60 196.44 57.48 194.75 58.71 C 192.70 60.17 189.66 60.02 187.67 58.50 C 186.49 57.14 185.59 55.52 184.55 54.05 Z M 133.56 46.86 C 134.28 47.28 134.99 47.70 135.70 48.13 C 135.68 51.93 135.20 56.04 136.10 59.74 C 138.90 62.22 141.43 60.65 144.46 59.76 C 142.47 59.28 140.47 58.86 138.47 58.41 C 138.38 54.76 138.40 51.12 138.33 47.48 C 140.38 47.27 142.43 47.05 144.46 46.72 C 142.60 46.20 140.70 45.80 138.80 45.44 C 138.36 43.98 137.89 42.54 137.38 41.11 C 136.15 43.06 135.00 45.05 133.56 46.86 Z M 90.93 58.38 C 88.10 58.29 83.50 60.11 81.34 57.75 C 80.40 56.30 79.98 54.46 79.43 52.84 C 83.16 52.76 86.88 52.78 90.61 52.66 C 89.96 50.47 89.87 47.49 87.60 46.32 C 84.52 44.43 80.37 45.32 78.41 48.38 C 75.81 52.12 76.59 59.10 81.38 60.73 C 85.11 62.09 87.91 60.35 90.93 58.38 Z M 92.47 65.45 C 96.27 68.52 101.96 69.05 105.73 65.71 C 107.85 63.85 107.96 60.18 105.18 58.89 C 102.27 57.99 98.91 58.28 95.89 58.10 C 95.95 57.24 96.01 56.39 96.07 55.53 C 98.91 55.29 102.65 55.98 104.57 53.34 C 105.99 51.47 105.08 49.45 104.68 47.41 C 106.02 47.17 107.36 46.91 108.69 46.62 C 105.35 45.82 101.70 45.04 98.27 45.44 C 96.12 45.71 93.68 47.65 94.15 50.03 C 94.83 55.51 94.42 60.23 92.47 65.45 Z M 120.41 56.41 C 120.29 57.74 120.18 59.07 120.06 60.39 C 123.16 60.91 126.33 61.92 129.28 60.31 C 131.49 59.17 132.65 56.14 131.09 54.02 C 128.90 52.43 125.99 51.70 123.48 50.70 C 123.27 49.65 123.05 48.61 122.83 47.56 C 124.16 47.31 125.54 46.99 126.88 46.92 C 128.47 47.54 129.77 49.00 131.09 50.04 C 131.07 48.59 131.05 47.13 131.03 45.68 C 127.95 45.43 124.44 44.66 121.92 47.00 C 120.27 48.61 120.28 50.50 121.36 52.44 C 123.59 54.17 126.84 54.57 129.11 56.23 C 129.38 57.89 129.27 58.96 127.46 59.43 C 124.45 60.60 122.59 57.98 120.41 56.41 Z M 159.94 58.38 C 157.41 58.50 154.79 59.09 152.27 58.87 C 149.53 58.26 149.31 55.00 148.42 52.85 C 152.16 52.75 155.90 52.77 159.65 52.64 C 159.00 50.51 158.78 47.47 156.60 46.30 C 153.33 44.26 148.76 45.57 147.00 49.00 C 144.91 52.82 145.81 59.13 150.39 60.73 C 154.09 62.07 156.93 60.36 159.94 58.38 Z M 162.20 45.90 C 164.88 49.91 165.03 56.85 162.44 60.93 C 164.80 60.81 167.14 60.82 169.51 60.95 C 165.95 58.32 166.80 54.97 166.94 51.06 C 167.00 49.24 167.77 48.73 169.20 47.84 C 171.00 48.08 172.81 48.81 174.55 49.36 C 174.05 47.90 173.67 46.50 172.92 45.14 C 171.20 45.44 169.55 46.08 167.83 46.38 C 165.96 46.42 164.06 46.05 162.20 45.90 Z M 215.66 57.85 C 212.79 58.21 208.63 60.32 206.38 57.66 C 204.40 55.29 204.38 50.56 206.16 48.10 C 208.21 45.70 211.89 48.40 214.22 49.10 C 214.10 47.99 213.98 46.89 213.85 45.78 C 210.93 45.48 208.30 44.79 205.68 46.59 C 201.59 49.24 200.76 55.38 203.93 59.05 C 205.40 60.76 207.70 61.44 209.89 61.15 C 212.04 60.73 213.93 59.12 215.66 57.85 Z M 217.19 45.90 C 219.98 49.88 219.98 56.79 217.47 60.90 C 219.85 60.80 222.21 60.82 224.59 60.96 C 220.98 58.33 221.75 55.03 221.95 51.06 C 222.05 49.64 222.67 48.35 224.17 48.06 C 225.88 48.08 227.61 48.58 229.28 48.90 C 229.02 47.65 228.74 46.41 228.44 45.17 C 226.55 45.47 224.71 46.08 222.82 46.37 C 220.95 46.39 219.06 46.05 217.19 45.90 Z M 244.95 58.38 C 242.42 58.49 239.80 59.11 237.28 58.86 C 234.45 58.22 234.33 55.09 233.45 52.84 C 237.19 52.76 240.93 52.78 244.67 52.64 C 244.00 50.48 243.79 47.51 241.60 46.32 C 238.28 44.27 233.81 45.55 232.00 48.99 C 229.93 52.78 230.86 59.16 235.39 60.73 C 239.08 62.11 241.93 60.30 244.95 58.38 Z M 260.93 58.37 C 258.41 58.49 255.79 59.11 253.27 58.86 C 250.44 58.21 250.33 55.10 249.45 52.84 C 253.18 52.75 256.91 52.77 260.65 52.67 C 260.00 50.53 259.79 47.45 257.61 46.30 C 254.29 44.26 249.79 45.56 247.99 49.00 C 245.95 52.82 246.84 59.13 251.39 60.73 C 255.09 62.10 257.92 60.34 260.93 58.37 Z M 263.24 45.97 C 265.99 49.89 265.95 56.91 263.45 60.93 C 265.43 60.85 267.39 60.83 269.37 60.87 C 266.99 56.69 268.00 52.19 268.19 47.58 C 269.99 47.69 273.24 46.75 274.31 48.61 C 275.31 52.54 275.43 57.27 273.43 60.93 C 275.37 60.85 277.31 60.82 279.25 60.86 C 276.76 56.79 278.09 52.92 277.26 48.53 C 276.69 46.12 274.52 45.07 272.19 45.52 C 269.02 46.22 266.48 46.31 263.24 45.97 Z M 110.28 60.95 C 112.70 60.81 115.09 60.80 117.50 60.91 C 116.78 59.94 115.43 58.96 115.27 57.72 C 114.88 53.69 115.19 49.57 115.08 45.51 C 113.55 45.69 112.02 45.83 110.50 46.06 C 112.88 50.36 113.68 56.99 110.28 60.95 Z M 52.00 408.99 C 265.33 409.00 478.66 409.00 691.99 408.99 C 691.99 298.66 691.99 188.33 692.00 78.01 C 480.99 77.99 269.99 78.00 58.99 78.00 C 56.71 78.01 54.40 77.95 52.12 78.12 C 51.92 81.07 52.03 84.04 52.00 87.00 C 52.01 194.33 52.01 301.66 52.00 408.99 Z M 484.71 1151.81 C 489.76 1150.72 494.47 1149.10 499.65 1148.56 C 505.07 1148.00 510.58 1148.16 516.02 1148.22 C 529.02 1148.46 541.38 1151.91 553.43 1156.56 C 558.74 1158.61 563.70 1161.32 569.14 1163.09 C 565.59 1160.73 561.81 1158.77 557.88 1157.14 C 548.95 1153.45 539.96 1150.37 530.44 1148.59 C 521.25 1146.75 511.35 1146.96 502.00 1147.26 C 495.85 1147.47 490.11 1148.77 484.71 1151.81 Z M 481.19 1152.79 C 480.39 1153.32 480.13 1153.92 480.42 1154.61 C 482.35 1155.86 483.98 1152.22 481.19 1152.79 Z" id="p0" />
<path d="M 111.33 38.90 C 112.73 38.94 114.12 38.99 115.52 39.05 C 115.43 40.16 115.35 41.27 115.26 42.38 C 114.26 42.16 113.27 41.91 112.29 41.62 C 111.94 40.72 111.62 39.82 111.33 38.90 Z" id="p1" />
<path d="M 56.44 40.06 C 60.13 40.24 63.91 40.01 67.56 40.56 C 69.88 40.93 71.67 42.68 71.72 45.10 C 71.86 48.10 69.30 49.81 67.43 51.75 C 70.07 55.12 72.63 58.42 76.02 61.09 C 74.10 60.67 70.82 61.19 69.68 59.31 C 67.08 56.21 65.63 52.82 61.78 50.92 C 61.56 54.82 61.02 57.78 63.75 60.92 C 61.23 60.80 58.74 60.82 56.22 60.97 C 56.99 59.97 57.81 58.96 58.43 57.88 C 58.85 53.61 58.69 49.22 58.57 44.94 C 58.56 42.92 57.35 41.74 56.44 40.06 Z M 61.67 41.45 C 61.61 44.49 61.62 47.53 61.71 50.57 C 63.51 50.19 65.67 50.10 67.27 49.14 C 69.03 47.65 69.01 44.35 67.41 42.74 C 65.72 41.84 63.53 41.79 61.67 41.45 Z" id="p2" />
<path d="M 197.63 40.33 C 197.62 42.28 197.60 44.22 197.57 46.17 C 195.47 43.72 194.46 40.50 190.52 41.43 C 187.65 41.98 186.89 44.12 187.99 46.67 C 190.66 48.89 194.86 49.28 197.47 51.58 C 199.98 54.31 198.68 58.92 195.38 60.38 C 191.71 62.04 187.96 60.94 184.25 60.15 C 184.33 58.11 184.41 56.08 184.55 54.05 C 185.59 55.52 186.49 57.14 187.67 58.50 C 189.66 60.02 192.70 60.17 194.75 58.71 C 196.44 57.48 196.23 54.60 194.66 53.41 C 192.19 51.76 188.97 51.17 186.52 49.49 C 183.74 47.06 184.67 42.43 187.79 40.74 C 190.59 39.09 194.55 40.04 197.63 40.33 Z" id="p3" />
<path d="M 61.67 41.45 C 63.53 41.79 65.72 41.84 67.41 42.74 C 69.01 44.35 69.03 47.65 67.27 49.14 C 65.67 50.10 63.51 50.19 61.71 50.57 C 61.62 47.53 61.61 44.49 61.67 41.45 Z" id="p4" />
<path d="M 137.38 41.11 C 137.89 42.54 138.36 43.98 138.80 45.44 C 140.70 45.80 142.60 46.20 144.46 46.72 C 142.43 47.05 140.38 47.27 138.33 47.48 C 138.40 51.12 138.38 54.76 138.47 58.41 C 140.47 58.86 142.47 59.28 144.46 59.76 C 141.43 60.65 138.90 62.22 136.10 59.74 C 135.20 56.04 135.68 51.93 135.70 48.13 C 134.99 47.70 134.28 47.28 133.56 46.86 C 135.00 45.05 136.15 43.06 137.38 41.11 Z" id="p5" />
<path d="M 87.60 46.32 C 89.87 47.49 89.96 50.47 90.61 52.66 C 86.88 52.78 83.16 52.76 79.43 52.84 C 79.98 54.46 80.40 56.30 81.34 57.75 C 83.50 60.11 88.10 58.29 90.93 58.38 C 87.91 60.35 85.11 62.09 81.38 60.73 C 76.59 59.10 75.81 52.12 78.41 48.38 C 80.37 45.32 84.52 44.43 87.60 46.32 Z M 79.39 51.14 C 82.20 51.23 85.00 51.24 87.81 51.19 C 87.16 49.74 86.59 48.17 85.63 46.91 C 84.48 46.69 83.38 46.69 82.33 46.92 C 81.11 48.07 80.27 49.72 79.39 51.14 Z" id="p6" />
<path d="M 98.27 45.44 C 101.70 45.04 105.35 45.82 108.69 46.62 C 107.36 46.91 106.02 47.17 104.68 47.41 C 105.08 49.45 105.99 51.47 104.57 53.34 C 102.65 55.98 98.91 55.29 96.07 55.53 C 96.01 56.39 95.95 57.24 95.89 58.10 C 98.91 58.28 102.27 57.99 105.18 58.89 C 107.96 60.18 107.85 63.85 105.73 65.71 C 101.96 69.05 96.27 68.52 92.47 65.45 C 94.42 60.23 94.83 55.51 94.15 50.03 C 93.68 47.65 96.12 45.71 98.27 45.44 Z M 102.08 54.40 C 102.16 52.23 103.26 49.09 101.65 47.32 C 99.96 45.78 99.16 46.51 97.39 47.38 C 96.36 49.45 96.49 51.43 97.40 53.51 C 98.93 53.95 100.50 54.15 102.08 54.40 Z M 95.44 60.69 C 95.50 62.11 95.64 63.53 95.84 64.93 C 97.59 67.02 101.21 66.82 103.47 65.75 C 104.36 64.57 104.99 63.12 105.67 61.80 C 102.29 60.83 98.93 60.66 95.44 60.69 Z" id="p7" />
<path d="M 131.03 45.68 C 131.05 47.13 131.07 48.59 131.09 50.04 C 129.77 49.00 128.47 47.54 126.88 46.92 C 125.54 46.99 124.16 47.31 122.83 47.56 C 123.05 48.61 123.27 49.65 123.48 50.70 C 125.99 51.70 128.90 52.43 131.09 54.02 C 132.65 56.14 131.49 59.17 129.28 60.31 C 126.33 61.92 123.16 60.91 120.06 60.39 C 120.18 59.07 120.29 57.74 120.41 56.41 C 122.59 57.98 124.45 60.60 127.46 59.43 C 129.27 58.96 129.38 57.89 129.11 56.23 C 126.84 54.57 123.59 54.17 121.36 52.44 C 120.28 50.50 120.27 48.61 121.92 47.00 C 124.44 44.66 127.95 45.43 131.03 45.68 Z" id="p8" />
<path d="M 156.60 46.30 C 158.78 47.47 159.00 50.51 159.65 52.64 C 155.90 52.77 152.16 52.75 148.42 52.85 C 149.31 55.00 149.53 58.26 152.27 58.87 C 154.79 59.09 157.41 58.50 159.94 58.38 C 156.93 60.36 154.09 62.07 150.39 60.73 C 145.81 59.13 144.91 52.82 147.00 49.00 C 148.76 45.57 153.33 44.26 156.60 46.30 Z M 148.41 51.16 C 151.20 51.24 154.00 51.23 156.80 51.15 C 155.71 49.52 155.55 46.20 152.96 46.74 C 150.41 46.45 149.62 49.51 148.41 51.16 Z" id="p9" />
<path d="M 172.92 45.14 C 173.67 46.50 174.05 47.90 174.55 49.36 C 172.81 48.81 171.00 48.08 169.20 47.84 C 167.77 48.73 167.00 49.24 166.94 51.06 C 166.80 54.97 165.95 58.32 169.51 60.95 C 167.14 60.82 164.80 60.81 162.44 60.93 C 165.03 56.85 164.88 49.91 162.20 45.90 C 164.06 46.05 165.96 46.42 167.83 46.38 C 169.55 46.08 171.20 45.44 172.92 45.14 Z" id="p10" />
<path d="M 213.85 45.78 C 213.98 46.89 214.10 47.99 214.22 49.10 C 211.89 48.40 208.21 45.70 206.16 48.10 C 204.38 50.56 204.40 55.29 206.38 57.66 C 208.63 60.32 212.79 58.21 215.66 57.85 C 213.93 59.12 212.04 60.73 209.89 61.15 C 207.70 61.44 205.40 60.76 203.93 59.05 C 200.76 55.38 201.59 49.24 205.68 46.59 C 208.30 44.79 210.93 45.48 213.85 45.78 Z" id="p11" />
<path d="M 228.44 45.17 C 228.74 46.41 229.02 47.65 229.28 48.90 C 227.61 48.58 225.88 48.08 224.17 48.06 C 222.67 48.35 222.05 49.64 221.95 51.06 C 221.75 55.03 220.98 58.33 224.59 60.96 C 222.21 60.82 219.85 60.80 217.47 60.90 C 219.98 56.79 219.98 49.88 217.19 45.90 C 219.06 46.05 220.95 46.39 222.82 46.37 C 224.71 46.08 226.55 45.47 228.44 45.17 Z" id="p12" />
<path d="M 241.60 46.32 C 243.79 47.51 244.00 50.48 244.67 52.64 C 240.93 52.78 237.19 52.76 233.45 52.84 C 234.33 55.09 234.45 58.22 237.28 58.86 C 239.80 59.11 242.42 58.49 244.95 58.38 C 241.93 60.30 239.08 62.11 235.39 60.73 C 230.86 59.16 229.93 52.78 232.00 48.99 C 233.81 45.55 238.28 44.27 241.60 46.32 Z M 233.37 51.13 C 236.18 51.23 238.99 51.24 241.81 51.18 C 241.14 49.69 240.55 48.24 239.67 46.86 C 238.52 46.72 237.40 46.75 236.33 46.93 C 235.14 48.12 234.27 49.72 233.37 51.13 Z" id="p13" />
<path d="M 257.61 46.30 C 259.79 47.45 260.00 50.53 260.65 52.67 C 256.91 52.77 253.18 52.75 249.45 52.84 C 250.33 55.10 250.44 58.21 253.27 58.86 C 255.79 59.11 258.41 58.49 260.93 58.37 C 257.92 60.34 255.09 62.10 251.39 60.73 C 246.84 59.13 245.95 52.82 247.99 49.00 C 249.79 45.56 254.29 44.26 257.61 46.30 Z M 249.37 51.13 C 252.18 51.23 254.99 51.23 257.81 51.16 C 257.13 49.68 256.54 48.24 255.66 46.86 C 254.51 46.72 253.40 46.75 252.33 46.94 C 251.14 48.13 250.27 49.72 249.37 51.13 Z" id="p14" />
<path d="M 272.19 45.52 C 274.52 45.07 276.69 46.12 277.26 48.53 C 278.09 52.92 276.76 56.79 279.25 60.86 C 277.31 60.82 275.37 60.85 273.43 60.93 C 275.43 57.27 275.31 52.54 274.31 48.61 C 273.24 46.75 269.99 47.69 268.19 47.58 C 268.00 52.19 266.99 56.69 269.37 60.87 C 267.39 60.83 265.43 60.85 263.45 60.93 C 265.95 56.91 265.99 49.89 263.24 45.97 C 266.48 46.31 269.02 46.22 272.19 45.52 Z" id="p15" />
<path d="M 110.50 46.06 C 112.02 45.83 113.55 45.69 115.08 45.51 C 115.19 49.57 114.88 53.69 115.27 57.72 C 115.43 58.96 116.78 59.94 117.50 60.91 C 115.09 60.80 112.70 60.81 110.28 60.95 C 113.68 56.99 112.88 50.36 110.50 46.06 Z" id="p16" />
<path d="M 82.33 46.92 C 83.38 46.69 84.48 46.69 85.63 46.91 C 86.59 48.17 87.16 49.74 87.81 51.19 C 85.00 51.24 82.20 51.23 79.39 51.14 C 80.27 49.72 81.11 48.07 82.33 46.92 Z" id="p17" />
<path d="M 101.65 47.32 C 103.26 49.09 102.16 52.23 102.08 54.40 C 100.50 54.15 98.93 53.95 97.40 53.51 C 96.49 51.43 96.36 49.45 97.39 47.38 C 99.16 46.51 99.96 45.78 101.65 47.32 Z" id="p18" />
<path d="M 152.96 46.74 C 155.55 46.20 155.71 49.52 156.80 51.15 C 154.00 51.23 151.20 51.24 148.41 51.16 C 149.62 49.51 150.41 46.45 152.96 46.74 Z" id="p19" />
<path d="M 236.33 46.93 C 237.40 46.75 238.52 46.72 239.67 46.86 C 240.55 48.24 241.14 49.69 241.81 51.18 C 238.99 51.24 236.18 51.23 233.37 51.13 C 234.27 49.72 235.14 48.12 236.33 46.93 Z" id="p20" />
<path d="M 252.33 46.94 C 253.40 46.75 254.51 46.72 255.66 46.86 C 256.54 48.24 257.13 49.68 257.81 51.16 C 254.99 51.23 252.18 51.23 249.37 51.13 C 250.27 49.72 251.14 48.13 252.33 46.94 Z" id="p21" />
<path d="M 95.44 60.69 C 98.93 60.66 102.29 60.83 105.67 61.80 C 104.99 63.12 104.36 64.57 103.47 65.75 C 101.21 66.82 97.59 67.02 95.84 64.93 C 95.64 63.53 95.50 62.11 95.44 60.69 Z" id="p22" />
<path d="M 52.12 78.12 C 54.40 77.95 56.71 78.01 58.99 78.00 C 269.99 78.00 480.99 77.99 692.00 78.01 C 691.99 188.33 691.99 298.66 691.99 408.99 C 478.66 409.00 265.33 409.00 52.00 408.99 C 52.01 301.66 52.01 194.33 52.00 87.00 C 52.03 84.04 51.92 81.07 52.12 78.12 Z M 217.68 99.06 C 215.80 103.56 217.42 108.47 216.14 112.85 C 214.72 116.84 208.43 116.74 207.18 112.75 C 206.25 108.29 207.00 103.64 206.16 99.13 C 204.42 103.16 204.91 108.27 205.52 112.51 C 206.51 118.57 216.54 118.70 217.82 112.78 C 218.44 108.31 218.28 103.52 217.68 99.06 Z M 336.00 99.97 C 336.00 107.65 336.00 115.32 336.00 123.00 C 378.34 123.01 420.67 122.99 463.01 123.01 C 463.00 115.34 463.00 107.67 463.01 99.99 C 420.67 99.98 378.34 100.04 336.00 99.97 Z M 228.41 113.29 C 227.78 114.22 227.16 115.15 226.52 116.08 C 224.47 115.49 222.43 114.85 220.35 114.35 C 222.48 116.47 224.39 117.97 227.49 116.64 C 229.68 115.83 229.29 114.06 229.39 112.13 C 227.37 110.72 225.04 110.01 222.86 108.73 C 223.04 107.69 223.46 106.80 224.15 106.07 C 226.06 106.37 227.93 107.01 229.83 107.44 C 228.27 106.29 227.24 104.63 225.11 104.91 C 222.24 105.06 220.81 106.99 221.83 109.76 C 223.83 111.22 226.25 112.08 228.41 113.29 Z M 242.60 114.42 C 240.06 114.66 236.45 117.05 234.48 114.66 C 233.67 113.62 233.09 112.36 232.46 111.19 C 235.88 110.99 239.31 111.04 242.73 110.96 C 241.77 108.42 241.79 105.87 238.69 105.11 C 234.04 103.87 230.44 108.06 231.47 112.52 C 232.13 116.11 236.14 118.11 239.41 116.59 C 240.56 115.97 241.56 115.20 242.60 114.42 Z M 246.27 116.96 L 247.58 116.93 C 247.64 113.97 247.78 111.02 248.02 108.06 C 249.52 107.01 251.04 106.00 252.53 104.94 C 250.41 105.04 248.28 105.20 246.19 105.52 C 246.16 109.33 246.33 113.15 246.27 116.96 Z M 254.30 116.92 L 255.60 116.97 C 255.66 114.13 255.51 111.06 256.22 108.31 C 257.11 106.05 260.20 105.02 261.80 107.32 C 262.72 110.75 262.31 114.36 263.45 117.80 C 263.79 114.31 264.75 109.32 262.82 106.16 C 260.97 104.01 256.71 105.38 254.19 105.53 C 254.15 109.32 254.34 113.12 254.30 116.92 Z M 267.40 107.32 C 269.43 106.94 271.48 106.23 273.55 106.12 C 274.41 107.17 275.08 108.29 275.80 109.43 C 273.25 110.18 266.86 109.72 267.34 113.83 C 268.00 118.76 273.68 116.47 276.96 116.55 C 276.55 113.15 277.07 109.31 275.89 106.09 C 272.64 103.81 270.13 105.09 267.40 107.32 Z M 281.28 116.91 L 282.59 116.97 C 282.66 114.14 282.50 111.06 283.23 108.32 C 284.07 106.21 287.21 104.88 288.51 107.47 C 289.26 110.87 288.74 114.47 289.35 117.93 C 290.91 114.55 289.93 110.73 291.31 107.43 C 292.98 105.40 295.37 105.50 296.44 108.02 C 297.05 111.36 296.63 114.64 297.72 117.92 C 298.45 113.18 299.25 108.80 296.08 104.75 C 290.98 106.13 286.26 104.60 281.18 105.45 C 281.16 109.27 281.32 113.09 281.28 116.91 Z M 312.60 114.45 C 310.08 114.69 306.45 116.99 304.47 114.69 C 303.66 113.63 303.09 112.36 302.47 111.19 C 305.88 111.00 309.29 111.04 312.71 110.96 C 311.96 109.01 311.75 106.13 309.45 105.40 C 306.37 104.03 302.74 105.52 301.69 108.76 C 300.26 112.51 302.80 117.17 307.05 117.09 C 309.27 117.27 310.89 115.60 312.60 114.45 Z M 311.54 138.98 C 308.93 138.43 306.34 137.04 303.91 138.85 C 299.87 141.50 300.66 148.36 305.34 149.88 C 307.89 150.23 310.52 149.54 313.11 149.66 C 312.96 143.49 313.52 137.18 312.71 131.05 C 311.62 133.63 311.67 136.25 311.54 138.98 Z M 215.29 132.96 C 215.71 138.72 214.22 145.45 216.34 150.86 C 216.82 148.03 216.92 145.19 217.00 142.33 C 219.46 142.04 222.89 142.61 224.70 140.64 C 226.38 139.06 226.20 136.01 224.61 134.48 C 222.42 132.12 218.24 133.18 215.29 132.96 Z M 336.00 133.00 C 336.00 141.00 336.00 149.00 336.00 157.01 C 378.33 157.01 420.67 157.00 463.00 157.01 C 463.00 149.01 462.99 141.00 463.01 132.99 C 420.67 133.01 378.34 133.00 336.00 133.00 Z M 227.40 140.29 C 229.43 139.93 231.49 139.21 233.55 139.15 C 234.41 140.18 235.10 141.30 235.83 142.43 C 233.29 143.16 227.85 142.73 227.24 146.14 C 227.32 147.06 227.60 147.98 228.07 148.88 C 230.28 150.99 234.13 149.50 236.95 149.57 C 236.55 146.18 237.09 142.30 235.88 139.10 C 232.62 136.81 230.15 138.07 227.40 140.29 Z M 246.23 149.14 C 243.92 148.57 241.65 147.89 239.33 147.38 C 241.48 149.46 243.42 150.98 246.51 149.66 C 248.60 148.79 248.36 147.05 248.39 145.14 C 246.35 143.71 244.06 143.02 241.89 141.73 C 241.98 140.66 242.41 139.78 243.18 139.10 C 245.09 139.38 246.96 140.03 248.85 140.45 C 246.78 138.63 245.37 137.10 242.42 138.29 C 240.39 138.94 240.03 141.22 241.00 142.90 C 242.82 144.17 245.04 144.82 246.93 146.02 C 246.74 147.07 246.50 148.11 246.23 149.14 Z M 257.41 146.30 C 256.78 147.23 256.15 148.16 255.52 149.09 C 253.46 148.50 251.43 147.86 249.35 147.36 C 251.48 149.43 253.42 150.98 256.49 149.63 C 258.62 148.80 258.33 147.05 258.39 145.14 C 256.35 143.71 254.05 143.02 251.97 141.72 C 251.84 140.57 252.26 139.73 253.23 139.17 C 255.13 139.39 256.98 140.03 258.85 140.41 C 256.77 138.63 255.35 137.13 252.42 138.28 C 250.35 139.06 249.99 141.10 251.01 142.89 C 252.98 144.26 255.31 145.12 257.41 146.30 Z M 259.92 137.22 C 260.48 141.59 261.74 145.92 263.21 150.07 L 264.68 149.90 C 265.86 146.84 266.73 143.65 267.86 140.57 C 269.01 144.04 270.06 147.52 271.64 150.83 C 273.89 146.64 275.22 141.87 275.70 137.15 C 273.35 140.05 272.92 143.77 271.70 147.35 C 270.44 143.90 269.41 140.41 267.98 137.01 C 266.30 140.22 265.26 143.62 263.95 146.98 C 262.68 143.47 262.28 140.18 259.92 137.22 Z M 282.35 138.16 C 278.10 139.84 276.99 145.50 280.37 148.58 C 283.89 151.81 289.74 149.73 290.26 144.92 C 290.86 140.22 286.92 136.81 282.35 138.16 Z M 294.27 149.92 L 295.59 149.95 C 295.63 146.98 295.77 144.02 296.01 141.05 C 297.52 140.01 299.04 139.00 300.53 137.94 C 298.42 138.04 296.29 138.19 294.20 138.52 C 294.14 142.32 294.32 146.12 294.27 149.92 Z M 240.55 174.01 C 237.87 173.42 235.45 172.05 232.91 173.85 C 228.87 176.57 229.63 183.31 234.33 184.89 C 236.88 185.22 239.51 184.53 242.11 184.65 C 241.96 178.48 242.53 172.18 241.71 166.06 C 240.62 168.64 240.67 171.27 240.55 174.01 Z M 81.28 185.02 C 84.89 185.00 88.50 185.01 92.10 185.02 L 92.06 183.83 C 89.00 183.82 85.95 183.82 82.89 183.84 C 82.89 181.67 82.89 179.50 82.89 177.33 C 86.12 177.16 89.03 177.46 92.10 176.26 C 89.01 175.85 86.00 175.95 82.90 175.95 C 82.90 173.72 82.89 171.49 82.88 169.26 C 86.31 169.17 89.43 169.49 92.73 168.32 C 89.00 167.79 85.14 167.81 81.39 168.10 C 81.09 173.72 81.40 179.38 81.28 185.02 Z M 145.34 185.86 C 145.82 183.05 145.93 180.22 146.00 177.37 C 148.23 177.08 151.25 177.48 153.14 176.13 C 155.32 174.57 155.46 171.31 153.63 169.46 C 151.45 167.19 147.26 167.99 144.40 168.08 C 144.14 172.07 144.28 176.09 144.24 180.09 C 144.21 182.23 144.52 183.89 145.34 185.86 Z M 296.15 168.18 C 295.57 169.20 295.84 169.87 296.99 170.17 C 299.10 169.75 297.95 167.00 296.15 168.18 Z M 336.00 168.00 C 336.00 175.67 336.00 183.33 336.00 191.00 C 378.33 191.00 420.67 191.00 463.01 191.00 C 463.00 183.34 463.00 175.67 463.01 168.00 C 420.67 168.00 378.33 168.00 336.00 168.00 Z M 107.89 173.33 C 110.29 176.70 109.13 179.96 109.91 183.81 C 111.20 185.38 112.67 184.93 114.48 185.15 C 113.34 184.29 112.19 183.47 111.04 182.63 C 111.05 179.86 111.04 177.09 111.00 174.31 C 112.08 174.21 113.17 174.10 114.25 173.99 C 112.86 172.82 111.55 171.61 110.27 170.33 C 109.47 171.32 108.69 172.34 107.89 173.33 Z M 254.35 180.13 C 256.48 180.16 258.60 180.21 260.73 180.21 C 260.91 176.16 260.88 173.02 258.84 169.36 C 257.40 170.01 255.15 170.56 254.70 172.28 C 253.92 174.73 254.66 177.57 254.35 180.13 Z M 95.28 184.94 L 96.58 184.92 C 96.65 182.10 96.53 179.05 97.22 176.30 C 97.96 174.20 101.41 172.90 102.75 175.35 C 103.83 178.70 103.24 182.41 104.43 185.81 C 104.77 182.34 105.78 177.28 103.79 174.16 C 102.00 171.99 97.68 173.38 95.20 173.54 C 95.16 177.34 95.34 181.14 95.28 184.94 Z M 126.97 183.35 C 125.04 183.38 123.10 183.68 121.18 183.61 C 119.11 183.30 118.40 180.76 117.48 179.19 C 120.89 179.00 124.31 179.03 127.73 178.97 C 126.97 177.01 126.77 174.11 124.45 173.40 C 121.67 172.18 118.26 173.25 116.97 176.07 C 115.52 179.02 116.48 183.11 119.60 184.54 C 122.32 185.88 124.53 184.56 126.97 183.35 Z M 131.27 184.87 L 132.58 185.01 C 132.66 182.18 132.52 179.14 133.20 176.37 C 134.34 175.00 136.00 174.02 137.40 172.92 C 135.33 173.05 133.25 173.20 131.21 173.51 C 131.15 177.30 131.32 181.08 131.27 184.87 Z M 156.40 175.31 C 158.43 174.93 160.48 174.22 162.55 174.14 C 163.48 175.05 164.12 176.33 164.80 177.44 C 162.32 177.91 159.44 178.05 157.21 179.28 C 155.87 180.84 156.22 182.19 157.07 183.89 C 159.30 185.99 163.10 184.49 165.94 184.56 C 165.53 181.18 166.11 177.29 164.88 174.10 C 161.65 171.77 159.13 173.12 156.40 175.31 Z M 176.45 181.30 C 175.81 182.23 175.17 183.16 174.53 184.08 C 172.47 183.49 170.43 182.85 168.34 182.34 C 170.47 184.47 172.40 185.99 175.49 184.64 C 177.52 183.75 177.38 182.04 177.40 180.14 C 175.33 178.71 173.05 178.01 170.90 176.73 C 170.98 175.64 171.41 174.77 172.18 174.11 C 174.10 174.38 175.97 175.01 177.86 175.41 C 176.26 174.25 175.23 172.62 173.05 172.93 C 170.24 172.98 168.49 175.37 170.02 177.89 C 171.98 179.30 174.35 180.12 176.45 181.30 Z M 186.45 181.28 C 185.80 182.21 185.15 183.15 184.50 184.07 C 182.44 183.48 180.41 182.84 178.33 182.34 C 180.47 184.48 182.39 185.96 185.51 184.65 C 187.45 183.79 187.52 182.04 187.33 180.17 C 185.47 178.73 182.99 177.99 180.95 176.73 C 180.85 175.57 181.28 174.72 182.24 174.19 C 184.14 174.41 185.99 175.03 187.87 175.40 C 185.79 173.62 184.36 172.11 181.44 173.27 C 179.33 174.03 179.28 175.90 179.82 177.78 C 181.83 179.23 184.27 180.09 186.45 181.28 Z M 188.91 172.21 C 189.50 176.95 190.84 181.73 192.96 186.02 C 194.49 182.71 195.55 179.26 196.88 175.87 C 198.08 179.23 199.11 182.62 200.66 185.83 C 202.88 181.63 204.21 176.87 204.69 172.15 C 202.39 175.04 201.93 178.81 200.71 182.36 C 199.44 178.90 198.41 175.41 196.96 172.02 C 195.30 175.23 194.26 178.63 192.95 181.98 C 191.70 178.48 191.25 175.19 188.91 172.21 Z M 211.36 173.17 C 207.36 174.64 206.10 179.91 208.88 183.05 C 210.89 185.59 215.25 185.87 217.49 183.50 C 220.11 181.05 219.85 176.12 216.94 174.00 C 215.34 172.69 213.26 172.73 211.36 173.17 Z M 223.28 184.92 L 224.59 184.93 C 224.64 181.96 224.78 179.01 225.02 176.04 C 226.52 175.01 228.04 174.00 229.53 172.94 C 227.41 173.04 225.29 173.19 223.19 173.51 C 223.16 177.31 223.33 181.11 223.28 184.92 Z M 278.15 184.16 C 277.17 186.39 276.90 188.52 274.59 189.79 C 272.14 189.81 269.65 188.84 267.24 188.41 C 269.08 189.70 270.57 191.30 273.00 191.10 C 275.80 191.34 278.25 189.52 278.80 186.77 C 279.45 182.37 279.01 177.77 279.10 173.32 C 276.53 173.38 273.87 172.74 271.35 173.12 C 266.61 174.62 265.91 181.48 269.91 184.16 C 272.27 185.95 275.49 184.42 278.15 184.16 Z M 282.39 175.31 C 284.43 174.92 286.49 174.22 288.56 174.10 C 289.40 175.17 290.08 176.29 290.80 177.43 C 288.20 178.17 282.95 177.73 282.21 181.13 C 282.32 182.06 282.61 182.98 283.08 183.87 C 285.28 186.00 289.15 184.49 291.96 184.57 C 291.54 181.19 292.09 177.30 290.87 174.11 C 287.64 171.79 285.13 173.10 282.39 175.31 Z M 296.02 173.07 C 296.06 177.03 296.06 180.98 296.03 184.93 L 297.88 184.97 C 297.85 181.00 297.85 177.04 297.89 173.07 L 296.02 173.07 Z M 302.29 184.89 L 303.59 184.99 C 303.65 182.15 303.52 179.07 304.22 176.31 C 304.89 174.22 308.55 172.85 309.72 175.36 C 310.86 178.67 310.22 182.42 311.44 185.80 C 311.80 182.32 312.77 177.29 310.79 174.16 C 308.99 171.99 304.66 173.40 302.17 173.54 C 302.15 177.32 302.34 181.11 302.29 184.89 Z M 311.04 204.05 C 311.06 210.02 311.06 216.00 311.04 221.97 L 312.87 221.92 C 312.85 215.96 312.85 210.00 312.89 204.03 L 311.04 204.05 Z M 257.29 222.00 C 260.90 222.01 264.50 222.01 268.11 222.01 L 268.04 220.84 C 264.99 220.82 261.93 220.81 258.88 220.81 C 258.89 218.63 258.89 216.46 258.89 214.28 C 262.10 214.15 265.05 214.52 268.05 213.26 C 264.98 212.84 261.98 212.95 258.89 212.98 C 258.89 210.76 258.89 208.53 258.89 206.30 C 262.33 206.16 265.45 206.45 268.76 205.34 C 265.02 204.78 261.16 204.81 257.40 205.09 C 257.09 210.71 257.38 216.37 257.29 222.00 Z M 305.17 205.18 C 304.59 206.20 304.87 206.86 306.01 207.17 C 308.12 206.76 306.95 204.00 305.17 205.18 Z M 336.00 205.00 C 336.00 212.68 336.00 220.35 336.00 228.03 C 378.00 227.96 420.01 228.02 462.01 228.00 C 461.99 220.33 462.00 212.67 462.01 205.00 C 420.01 205.00 378.00 205.00 336.00 205.00 Z M 272.04 222.79 C 272.65 219.66 272.56 216.42 273.25 213.32 C 274.12 211.24 277.22 209.85 278.48 212.50 C 279.32 215.84 278.70 219.47 279.39 222.88 C 280.96 219.56 279.81 215.49 281.40 212.38 C 283.07 210.25 285.30 210.63 286.44 213.03 C 287.04 216.36 286.64 219.65 287.71 222.93 C 288.24 219.55 289.03 214.81 287.41 211.65 C 285.56 208.70 282.85 210.55 280.04 210.42 C 277.05 210.09 274.16 210.00 271.18 210.43 C 271.14 214.51 271.03 218.82 272.04 222.79 Z M 291.39 212.34 C 293.41 211.97 295.48 211.15 297.54 211.17 C 298.43 212.19 299.10 213.30 299.83 214.43 C 297.36 214.90 294.44 215.07 292.21 216.28 C 290.84 217.82 291.26 219.21 292.04 220.91 C 294.41 222.95 298.02 221.52 300.95 221.57 C 300.55 218.18 301.09 214.30 299.88 211.10 C 296.62 208.80 294.12 210.09 291.39 212.34 Z M 305.03 210.02 C 304.94 214.31 304.92 218.59 305.53 222.85 C 307.73 218.99 306.70 214.48 306.87 210.07 L 305.03 210.02 Z M 261.25 262.91 L 262.57 262.95 C 262.67 259.89 262.48 256.43 263.49 253.52 C 265.03 252.04 267.40 251.07 268.73 253.38 C 270.04 256.62 269.05 260.49 270.58 263.85 C 271.01 260.35 271.88 255.30 269.81 252.16 C 267.79 249.92 265.24 251.38 262.79 251.85 C 262.68 249.29 262.51 246.74 262.06 244.21 C 260.49 250.15 261.62 256.78 261.25 262.91 Z M 248.35 263.84 C 248.83 261.03 248.93 258.19 248.99 255.35 C 251.41 255.03 254.93 255.60 256.68 253.63 C 258.43 252.00 258.22 249.03 256.61 247.43 C 254.47 245.19 250.23 245.99 247.41 246.08 C 247.14 250.40 247.25 254.75 247.27 259.07 C 247.25 260.77 247.71 262.29 248.35 263.84 Z M 336.00 247.00 C 336.00 254.67 336.00 262.34 336.00 270.02 C 378.01 269.99 420.02 270.00 462.02 270.01 C 461.97 262.34 462.03 254.67 462.01 247.00 C 420.01 246.99 378.00 247.00 336.00 247.00 Z M 278.34 251.15 C 274.09 252.81 272.99 258.54 276.38 261.58 C 279.83 264.82 285.79 262.72 286.23 257.92 C 286.85 253.17 282.93 249.87 278.34 251.15 Z M 290.28 262.93 L 291.58 262.98 C 291.66 260.13 291.53 257.07 292.22 254.30 C 292.90 252.20 296.50 250.87 297.73 253.36 C 298.84 256.68 298.24 260.41 299.45 263.79 C 299.79 260.29 300.75 255.34 298.83 252.16 C 296.92 250.03 292.74 251.35 290.19 251.52 C 290.16 255.32 290.33 259.13 290.28 262.93 Z M 314.61 260.43 C 312.06 260.68 308.50 263.01 306.48 260.67 C 305.67 259.63 305.08 258.38 304.45 257.22 C 307.88 257.01 311.30 257.04 314.73 256.95 C 313.72 254.07 313.53 251.36 309.88 250.95 C 305.53 250.36 302.49 254.46 303.48 258.52 C 304.18 262.06 308.14 264.12 311.41 262.60 C 312.56 261.97 313.56 261.21 314.61 260.43 Z M 336.00 280.99 C 336.00 305.00 336.00 329.00 336.00 353.00 C 378.00 353.00 420.01 353.00 462.02 353.00 C 461.99 329.00 462.01 305.00 462.00 280.99 C 420.00 281.00 378.00 281.00 336.00 280.99 Z M 300.04 282.02 C 300.06 288.00 300.08 293.98 300.03 299.97 L 301.88 299.92 C 301.85 293.96 301.83 288.00 301.89 282.05 L 300.04 282.02 Z M 271.28 282.96 C 271.71 288.72 270.23 295.44 272.32 300.87 C 272.83 297.96 272.98 295.03 273.15 292.08 C 274.04 292.12 274.92 292.15 275.81 292.19 C 277.90 295.33 279.28 298.49 282.40 300.73 C 281.33 297.77 279.69 295.16 278.02 292.52 C 279.40 291.38 281.12 290.26 282.01 288.70 C 282.51 286.21 281.31 283.74 278.72 283.16 C 276.28 282.79 273.74 282.98 271.28 282.96 Z M 288.35 288.16 C 284.35 289.70 283.10 294.86 285.87 298.06 C 287.93 300.61 292.20 300.85 294.48 298.50 C 297.10 296.04 296.87 291.13 293.93 289.01 C 292.33 287.70 290.27 287.75 288.35 288.16 Z M 316.65 297.44 C 314.46 297.86 312.25 298.66 310.03 298.78 C 307.99 297.83 307.49 296.00 306.45 294.18 C 309.87 294.00 313.28 294.03 316.70 293.97 C 315.74 290.99 315.55 288.41 311.87 287.96 C 307.27 287.29 304.10 292.12 305.70 296.23 C 306.69 299.42 310.43 301.01 313.41 299.59 C 314.57 298.97 315.58 298.21 316.65 297.44 Z M 320.50 288.26 C 319.52 289.95 321.55 291.14 322.80 289.84 C 323.77 288.18 321.74 286.90 320.50 288.26 Z M 320.46 298.11 C 319.60 299.70 321.59 301.11 322.83 299.82 C 323.76 298.20 321.71 296.85 320.46 298.11 Z" id="p23" />
<path d="M 206.16 99.13 C 207.00 103.64 206.25 108.29 207.18 112.75 C 208.43 116.74 214.72 116.84 216.14 112.85 C 217.42 108.47 215.80 103.56 217.68 99.06 C 218.28 103.52 218.44 108.31 217.82 112.78 C 216.54 118.70 206.51 118.57 205.52 112.51 C 204.91 108.27 204.42 103.16 206.16 99.13 Z" id="p24" />
<path d="M 336.00 99.97 C 378.34 100.04 420.67 99.98 463.01 99.99 C 463.00 107.67 463.00 115.34 463.01 123.01 C 420.67 122.99 378.34 123.01 336.00 123.00 C 336.00 115.32 336.00 107.65 336.00 99.97 Z M 339.01 120.00 C 379.34 120.00 419.67 120.00 460.00 120.00 C 460.00 114.33 460.00 108.67 460.00 103.00 C 419.77 103.08 379.32 102.84 339.12 103.12 C 338.87 108.73 339.06 114.38 339.01 120.00 Z" id="p25" />
<path d="M 339.12 103.12 C 379.32 102.84 419.77 103.08 460.00 103.00 C 460.00 108.67 460.00 114.33 460.00 120.00 C 419.67 120.00 379.34 120.00 339.01 120.00 C 339.06 114.38 338.87 108.73 339.12 103.12 Z" id="p26" />
<path d="M 225.11 104.91 C 227.24 104.63 228.27 106.29 229.83 107.44 C 227.93 107.01 226.06 106.37 224.15 106.07 C 223.46 106.80 223.04 107.69 222.86 108.73 C 225.04 110.01 227.37 110.72 229.39 112.13 C 229.29 114.06 229.68 115.83 227.49 116.64 C 224.39 117.97 222.48 116.47 220.35 114.35 C 222.43 114.85 224.47 115.49 226.52 116.08 C 227.16 115.15 227.78 114.22 228.41 113.29 C 226.25 112.08 223.83 111.22 221.83 109.76 C 220.81 106.99 222.24 105.06 225.11 104.91 Z" id="p27" />
<path d="M 238.69 105.11 C 241.79 105.87 241.77 108.42 242.73 110.96 C 239.31 111.04 235.88 110.99 232.46 111.19 C 233.09 112.36 233.67 113.62 234.48 114.66 C 236.45 117.05 240.06 114.66 242.60 114.42 C 241.56 115.20 240.56 115.97 239.41 116.59 C 236.14 118.11 232.13 116.11 231.47 112.52 C 230.44 108.06 234.04 103.87 238.69 105.11 Z M 232.36 109.83 C 235.44 110.01 238.47 109.99 241.55 109.72 C 240.39 108.45 239.01 105.83 237.03 106.00 C 234.99 105.86 233.57 108.51 232.36 109.83 Z" id="p28" />
<path d="M 246.19 105.52 C 248.28 105.20 250.41 105.04 252.53 104.94 C 251.04 106.00 249.52 107.01 248.02 108.06 C 247.78 111.02 247.64 113.97 247.58 116.93 L 246.27 116.96 C 246.33 113.15 246.16 109.33 246.19 105.52 Z" id="p29" />
<path d="M 254.19 105.53 C 256.71 105.38 260.97 104.01 262.82 106.16 C 264.75 109.32 263.79 114.31 263.45 117.80 C 262.31 114.36 262.72 110.75 261.80 107.32 C 260.20 105.02 257.11 106.05 256.22 108.31 C 255.51 111.06 255.66 114.13 255.60 116.97 L 254.30 116.92 C 254.34 113.12 254.15 109.32 254.19 105.53 Z" id="p30" />
<path d="M 275.89 106.09 C 277.07 109.31 276.55 113.15 276.96 116.55 C 273.68 116.47 268.00 118.76 267.34 113.83 C 266.86 109.72 273.25 110.18 275.80 109.43 C 275.08 108.29 274.41 107.17 273.55 106.12 C 271.48 106.23 269.43 106.94 267.40 107.32 C 270.13 105.09 272.64 103.81 275.89 106.09 Z M 269.30 112.03 C 269.11 113.10 268.94 114.17 268.77 115.25 C 270.48 115.42 272.49 116.42 273.94 115.08 C 274.91 113.99 275.18 112.26 275.71 110.92 C 273.54 111.13 271.39 111.38 269.30 112.03 Z" id="p31" />
<path d="M 281.18 105.45 C 286.26 104.60 290.98 106.13 296.08 104.75 C 299.25 108.80 298.45 113.18 297.72 117.92 C 296.63 114.64 297.05 111.36 296.44 108.02 C 295.37 105.50 292.98 105.40 291.31 107.43 C 289.93 110.73 290.91 114.55 289.35 117.93 C 288.74 114.47 289.26 110.87 288.51 107.47 C 287.21 104.88 284.07 106.21 283.23 108.32 C 282.50 111.06 282.66 114.14 282.59 116.97 L 281.28 116.91 C 281.32 113.09 281.16 109.27 281.18 105.45 Z" id="p32" />
<path d="M 309.45 105.40 C 311.75 106.13 311.96 109.01 312.71 110.96 C 309.29 111.04 305.88 111.00 302.47 111.19 C 303.09 112.36 303.66 113.63 304.47 114.69 C 306.45 116.99 310.08 114.69 312.60 114.45 C 310.89 115.60 309.27 117.27 307.05 117.09 C 302.80 117.17 300.26 112.51 301.69 108.76 C 302.74 105.52 306.37 104.03 309.45 105.40 Z M 302.35 109.79 C 305.45 110.01 308.46 110.00 311.55 109.72 C 310.48 108.49 309.37 106.60 307.79 106.02 C 305.02 105.62 303.95 108.05 302.35 109.79 Z" id="p33" />
<path d="M 237.03 106.00 C 239.01 105.83 240.39 108.45 241.55 109.72 C 238.47 109.99 235.44 110.01 232.36 109.83 C 233.57 108.51 234.99 105.86 237.03 106.00 Z" id="p34" />
<path d="M 307.79 106.02 C 309.37 106.60 310.48 108.49 311.55 109.72 C 308.46 110.00 305.45 110.01 302.35 109.79 C 303.95 108.05 305.02 105.62 307.79 106.02 Z" id="p35" />
<path d="M 275.71 110.92 C 275.18 112.26 274.91 113.99 273.94 115.08 C 272.49 116.42 270.48 115.42 268.77 115.25 C 268.94 114.17 269.11 113.10 269.30 112.03 C 271.39 111.38 273.54 111.13 275.71 110.92 Z" id="p36" />
<path d="M 0.00 128.37 C 3.36 136.90 6.21 145.50 8.72 154.32 C 17.85 185.13 23.57 216.90 25.39 249.00 C 26.04 266.76 26.41 284.75 24.74 302.46 C 22.94 328.10 18.12 353.87 13.05 379.06 C 8.98 396.90 5.23 414.90 0.00 432.45 L 0.00 128.37 Z" id="p37" />
<path d="M 312.71 131.05 C 313.52 137.18 312.96 143.49 313.11 149.66 C 310.52 149.54 307.89 150.23 305.34 149.88 C 300.66 148.36 299.87 141.50 303.91 138.85 C 306.34 137.04 308.93 138.43 311.54 138.98 C 311.67 136.25 311.62 133.63 312.71 131.05 Z M 306.30 139.09 C 302.22 140.26 301.69 146.93 305.64 148.49 C 308.01 149.69 311.00 147.99 311.53 145.47 C 312.49 142.11 310.01 138.37 306.30 139.09 Z" id="p38" />
<path d="M 215.29 132.96 C 218.24 133.18 222.42 132.12 224.61 134.48 C 226.20 136.01 226.38 139.06 224.70 140.64 C 222.89 142.61 219.46 142.04 217.00 142.33 C 216.92 145.19 216.82 148.03 216.34 150.86 C 214.22 145.45 215.71 138.72 215.29 132.96 Z M 216.83 141.07 C 219.28 140.96 221.65 140.68 224.03 140.08 C 224.03 138.39 224.01 136.71 223.96 135.03 C 221.73 134.51 219.49 134.09 217.19 134.08 C 216.87 136.41 216.87 138.72 216.83 141.07 Z" id="p39" />
<path d="M 336.00 133.00 C 378.34 133.00 420.67 133.01 463.01 132.99 C 462.99 141.00 463.00 149.01 463.00 157.01 C 420.67 157.00 378.33 157.01 336.00 157.01 C 336.00 149.00 336.00 141.00 336.00 133.00 Z M 339.00 153.99 C 379.33 154.00 419.67 154.00 460.00 153.99 C 460.00 147.99 460.00 142.00 460.00 136.00 C 419.77 136.08 379.32 135.84 339.12 136.12 C 338.86 142.06 339.07 148.04 339.00 153.99 Z" id="p40" />
<path d="M 217.19 134.08 C 219.49 134.09 221.73 134.51 223.96 135.03 C 224.01 136.71 224.03 138.39 224.03 140.08 C 221.65 140.68 219.28 140.96 216.83 141.07 C 216.87 138.72 216.87 136.41 217.19 134.08 Z" id="p41" />
<path d="M 339.12 136.12 C 379.32 135.84 419.77 136.08 460.00 136.00 C 460.00 142.00 460.00 147.99 460.00 153.99 C 419.67 154.00 379.33 154.00 339.00 153.99 C 339.07 148.04 338.86 142.06 339.12 136.12 Z" id="p42" />
<path d="M 235.88 139.10 C 237.09 142.30 236.55 146.18 236.95 149.57 C 234.13 149.50 230.28 150.99 228.07 148.88 C 227.60 147.98 227.32 147.06 227.24 146.14 C 227.85 142.73 233.29 143.16 235.83 142.43 C 235.10 141.30 234.41 140.18 233.55 139.15 C 231.49 139.21 229.43 139.93 227.40 140.29 C 230.15 138.07 232.62 136.81 235.88 139.10 Z M 229.28 145.04 C 229.10 146.10 228.93 147.17 228.77 148.23 C 230.48 148.40 232.51 149.44 233.96 148.10 C 234.92 146.99 235.18 145.27 235.70 143.91 C 233.52 144.13 231.37 144.38 229.28 145.04 Z" id="p43" />
<path d="M 242.42 138.29 C 245.37 137.10 246.78 138.63 248.85 140.45 C 246.96 140.03 245.09 139.38 243.18 139.10 C 242.41 139.78 241.98 140.66 241.89 141.73 C 244.06 143.02 246.35 143.71 248.39 145.14 C 248.36 147.05 248.60 148.79 246.51 149.66 C 243.42 150.98 241.48 149.46 239.33 147.38 C 241.65 147.89 243.92 148.57 246.23 149.14 C 246.50 148.11 246.74 147.07 246.93 146.02 C 245.04 144.82 242.82 144.17 241.00 142.90 C 240.03 141.22 240.39 138.94 242.42 138.29 Z" id="p44" />
<path d="M 252.42 138.28 C 255.35 137.13 256.77 138.63 258.85 140.41 C 256.98 140.03 255.13 139.39 253.23 139.17 C 252.26 139.73 251.84 140.57 251.97 141.72 C 254.05 143.02 256.35 143.71 258.39 145.14 C 258.33 147.05 258.62 148.80 256.49 149.63 C 253.42 150.98 251.48 149.43 249.35 147.36 C 251.43 147.86 253.46 148.50 255.52 149.09 C 256.15 148.16 256.78 147.23 257.41 146.30 C 255.31 145.12 252.98 144.26 251.01 142.89 C 249.99 141.10 250.35 139.06 252.42 138.28 Z" id="p45" />
<path d="M 259.92 137.22 C 262.28 140.18 262.68 143.47 263.95 146.98 C 265.26 143.62 266.30 140.22 267.98 137.01 C 269.41 140.41 270.44 143.90 271.70 147.35 C 272.92 143.77 273.35 140.05 275.70 137.15 C 275.22 141.87 273.89 146.64 271.64 150.83 C 270.06 147.52 269.01 144.04 267.86 140.57 C 266.73 143.65 265.86 146.84 264.68 149.90 L 263.21 150.07 C 261.74 145.92 260.48 141.59 259.92 137.22 Z" id="p46" />
<path d="M 282.35 138.16 C 286.92 136.81 290.86 140.22 290.26 144.92 C 289.74 149.73 283.89 151.81 280.37 148.58 C 276.99 145.50 278.10 139.84 282.35 138.16 Z M 283.34 139.22 C 279.39 140.17 278.80 146.06 281.99 148.11 C 284.83 150.22 289.21 147.43 288.88 144.00 C 288.98 140.91 286.41 138.59 283.34 139.22 Z" id="p47" />
<path d="M 294.20 138.52 C 296.29 138.19 298.42 138.04 300.53 137.94 C 299.04 139.00 297.52 140.01 296.01 141.05 C 295.77 144.02 295.63 146.98 295.59 149.95 L 294.27 149.92 C 294.32 146.12 294.14 142.32 294.20 138.52 Z" id="p48" />
<path d="M 283.34 139.22 C 286.41 138.59 288.98 140.91 288.88 144.00 C 289.21 147.43 284.83 150.22 281.99 148.11 C 278.80 146.06 279.39 140.17 283.34 139.22 Z" id="p49" />
<path d="M 306.30 139.09 C 310.01 138.37 312.49 142.11 311.53 145.47 C 311.00 147.99 308.01 149.69 305.64 148.49 C 301.69 146.93 302.22 140.26 306.30 139.09 Z" id="p50" />
<path d="M 235.70 143.91 C 235.18 145.27 234.92 146.99 233.96 148.10 C 232.51 149.44 230.48 148.40 228.77 148.23 C 228.93 147.17 229.10 146.10 229.28 145.04 C 231.37 144.38 233.52 144.13 235.70 143.91 Z" id="p51" />
<path d="M 241.71 166.06 C 242.53 172.18 241.96 178.48 242.11 184.65 C 239.51 184.53 236.88 185.22 234.33 184.89 C 229.63 183.31 228.87 176.57 232.91 173.85 C 235.45 172.05 237.87 173.42 240.55 174.01 C 240.67 171.27 240.62 168.64 241.71 166.06 Z M 235.29 174.07 C 231.21 175.32 230.67 181.86 234.65 183.50 C 237.34 184.80 240.40 182.61 240.67 179.78 C 241.12 176.50 238.77 173.48 235.29 174.07 Z" id="p52" />
<path d="M 81.39 168.10 C 85.14 167.81 89.00 167.79 92.73 168.32 C 89.43 169.49 86.31 169.17 82.88 169.26 C 82.89 171.49 82.90 173.72 82.90 175.95 C 86.00 175.95 89.01 175.85 92.10 176.26 C 89.03 177.46 86.12 177.16 82.89 177.33 C 82.89 179.50 82.89 181.67 82.89 183.84 C 85.95 183.82 89.00 183.82 92.06 183.83 L 92.10 185.02 C 88.50 185.01 84.89 185.00 81.28 185.02 C 81.40 179.38 81.09 173.72 81.39 168.10 Z" id="p53" />
<path d="M 144.40 168.08 C 147.26 167.99 151.45 167.19 153.63 169.46 C 155.46 171.31 155.32 174.57 153.14 176.13 C 151.25 177.48 148.23 177.08 146.00 177.37 C 145.93 180.22 145.82 183.05 145.34 185.86 C 144.52 183.89 144.21 182.23 144.24 180.09 C 144.28 176.09 144.14 172.07 144.40 168.08 Z M 145.83 176.08 C 148.29 175.96 150.65 175.67 153.03 175.07 C 153.04 173.39 153.02 171.71 152.98 170.03 C 150.74 169.50 148.50 169.07 146.18 169.10 C 145.87 171.40 145.87 173.75 145.83 176.08 Z" id="p54" />
<path d="M 296.15 168.18 C 297.95 167.00 299.10 169.75 296.99 170.17 C 295.84 169.87 295.57 169.20 296.15 168.18 Z" id="p55" />
<path d="M 336.00 168.00 C 378.33 168.00 420.67 168.00 463.01 168.00 C 463.00 175.67 463.00 183.34 463.01 191.00 C 420.67 191.00 378.33 191.00 336.00 191.00 C 336.00 183.33 336.00 175.67 336.00 168.00 Z M 339.00 188.00 C 379.33 188.00 419.67 188.01 460.00 187.99 C 460.00 182.33 460.00 176.67 460.00 171.01 C 421.33 170.99 382.66 171.01 343.99 171.00 C 342.35 171.00 340.75 171.00 339.12 171.12 C 338.87 176.74 339.06 182.38 339.00 188.00 Z" id="p56" />
<path d="M 146.18 169.10 C 148.50 169.07 150.74 169.50 152.98 170.03 C 153.02 171.71 153.04 173.39 153.03 175.07 C 150.65 175.67 148.29 175.96 145.83 176.08 C 145.87 173.75 145.87 171.40 146.18 169.10 Z" id="p57" />
<path d="M 110.27 170.33 C 111.55 171.61 112.86 172.82 114.25 173.99 C 113.17 174.10 112.08 174.21 111.00 174.31 C 111.04 177.09 111.05 179.86 111.04 182.63 C 112.19 183.47 113.34 184.29 114.48 185.15 C 112.67 184.93 111.20 185.38 109.91 183.81 C 109.13 179.96 110.29 176.70 107.89 173.33 C 108.69 172.34 109.47 171.32 110.27 170.33 Z" id="p58" />
<path d="M 258.84 169.36 C 260.88 173.02 260.91 176.16 260.73 180.21 C 258.60 180.21 256.48 180.16 254.35 180.13 C 254.66 177.57 253.92 174.73 254.70 172.28 C 255.15 170.56 257.40 170.01 258.84 169.36 Z" id="p59" />
<path d="M 339.12 171.12 C 340.75 171.00 342.35 171.00 343.99 171.00 C 382.66 171.01 421.33 170.99 460.00 171.01 C 460.00 176.67 460.00 182.33 460.00 187.99 C 419.67 188.01 379.33 188.00 339.00 188.00 C 339.06 182.38 338.87 176.74 339.12 171.12 Z" id="p60" />
<path d="M 95.20 173.54 C 97.68 173.38 102.00 171.99 103.79 174.16 C 105.78 177.28 104.77 182.34 104.43 185.81 C 103.24 182.41 103.83 178.70 102.75 175.35 C 101.41 172.90 97.96 174.20 97.22 176.30 C 96.53 179.05 96.65 182.10 96.58 184.92 L 95.28 184.94 C 95.34 181.14 95.16 177.34 95.20 173.54 Z" id="p61" />
<path d="M 124.45 173.40 C 126.77 174.11 126.97 177.01 127.73 178.97 C 124.31 179.03 120.89 179.00 117.48 179.19 C 118.40 180.76 119.11 183.30 121.18 183.61 C 123.10 183.68 125.04 183.38 126.97 183.35 C 124.53 184.56 122.32 185.88 119.60 184.54 C 116.48 183.11 115.52 179.02 116.97 176.07 C 118.26 173.25 121.67 172.18 124.45 173.40 Z M 117.34 177.80 C 120.43 178.01 123.45 178.00 126.54 177.74 C 125.48 176.55 124.37 174.53 122.79 174.05 C 120.16 173.49 118.83 176.17 117.34 177.80 Z" id="p62" />
<path d="M 131.21 173.51 C 133.25 173.20 135.33 173.05 137.40 172.92 C 136.00 174.02 134.34 175.00 133.20 176.37 C 132.52 179.14 132.66 182.18 132.58 185.01 L 131.27 184.87 C 131.32 181.08 131.15 177.30 131.21 173.51 Z" id="p63" />
<path d="M 164.88 174.10 C 166.11 177.29 165.53 181.18 165.94 184.56 C 163.10 184.49 159.30 185.99 157.07 183.89 C 156.22 182.19 155.87 180.84 157.21 179.28 C 159.44 178.05 162.32 177.91 164.80 177.44 C 164.12 176.33 163.48 175.05 162.55 174.14 C 160.48 174.22 158.43 174.93 156.40 175.31 C 159.13 173.12 161.65 171.77 164.88 174.10 Z M 158.28 180.04 C 158.10 181.10 157.92 182.16 157.76 183.22 C 159.53 183.44 161.41 184.40 162.96 183.11 C 163.84 181.91 164.19 180.30 164.71 178.92 C 162.53 179.12 160.38 179.36 158.28 180.04 Z" id="p64" />
<path d="M 173.05 172.93 C 175.23 172.62 176.26 174.25 177.86 175.41 C 175.97 175.01 174.10 174.38 172.18 174.11 C 171.41 174.77 170.98 175.64 170.90 176.73 C 173.05 178.01 175.33 178.71 177.40 180.14 C 177.38 182.04 177.52 183.75 175.49 184.64 C 172.40 185.99 170.47 184.47 168.34 182.34 C 170.43 182.85 172.47 183.49 174.53 184.08 C 175.17 183.16 175.81 182.23 176.45 181.30 C 174.35 180.12 171.98 179.30 170.02 177.89 C 168.49 175.37 170.24 172.98 173.05 172.93 Z" id="p65" />
<path d="M 181.44 173.27 C 184.36 172.11 185.79 173.62 187.87 175.40 C 185.99 175.03 184.14 174.41 182.24 174.19 C 181.28 174.72 180.85 175.57 180.95 176.73 C 182.99 177.99 185.47 178.73 187.33 180.17 C 187.52 182.04 187.45 183.79 185.51 184.65 C 182.39 185.96 180.47 184.48 178.33 182.34 C 180.41 182.84 182.44 183.48 184.50 184.07 C 185.15 183.15 185.80 182.21 186.45 181.28 C 184.27 180.09 181.83 179.23 179.82 177.78 C 179.28 175.90 179.33 174.03 181.44 173.27 Z" id="p66" />
<path d="M 188.91 172.21 C 191.25 175.19 191.70 178.48 192.95 181.98 C 194.26 178.63 195.30 175.23 196.96 172.02 C 198.41 175.41 199.44 178.90 200.71 182.36 C 201.93 178.81 202.39 175.04 204.69 172.15 C 204.21 176.87 202.88 181.63 200.66 185.83 C 199.11 182.62 198.08 179.23 196.88 175.87 C 195.55 179.26 194.49 182.71 192.96 186.02 C 190.84 181.73 189.50 176.95 188.91 172.21 Z" id="p67" />
<path d="M 211.36 173.17 C 213.26 172.73 215.34 172.69 216.94 174.00 C 219.85 176.12 220.11 181.05 217.49 183.50 C 215.25 185.87 210.89 185.59 208.88 183.05 C 206.10 179.91 207.36 174.64 211.36 173.17 Z M 212.36 174.24 C 208.41 175.18 207.75 181.06 210.99 183.13 C 213.81 185.21 218.24 182.44 217.90 179.00 C 217.96 175.98 215.42 173.50 212.36 174.24 Z" id="p68" />
<path d="M 223.19 173.51 C 225.29 173.19 227.41 173.04 229.53 172.94 C 228.04 174.00 226.52 175.01 225.02 176.04 C 224.78 179.01 224.64 181.96 224.59 184.93 L 223.28 184.92 C 223.33 181.11 223.16 177.31 223.19 173.51 Z" id="p69" />
<path d="M 271.35 173.12 C 273.87 172.74 276.53 173.38 279.10 173.32 C 279.01 177.77 279.45 182.37 278.80 186.77 C 278.25 189.52 275.80 191.34 273.00 191.10 C 270.57 191.30 269.08 189.70 267.24 188.41 C 269.65 188.84 272.14 189.81 274.59 189.79 C 276.90 188.52 277.17 186.39 278.15 184.16 C 275.49 184.42 272.27 185.95 269.91 184.16 C 265.91 181.48 266.61 174.62 271.35 173.12 Z M 272.31 174.13 C 268.15 175.26 267.76 181.90 271.61 183.56 C 274.20 184.56 276.90 183.25 277.54 180.50 C 278.51 177.18 275.91 173.37 272.31 174.13 Z" id="p70" />
<path d="M 290.87 174.11 C 292.09 177.30 291.54 181.19 291.96 184.57 C 289.15 184.49 285.28 186.00 283.08 183.87 C 282.61 182.98 282.32 182.06 282.21 181.13 C 282.95 177.73 288.20 178.17 290.80 177.43 C 290.08 176.29 289.40 175.17 288.56 174.10 C 286.49 174.22 284.43 174.92 282.39 175.31 C 285.13 173.10 287.64 171.79 290.87 174.11 Z M 283.80 180.19 C 284.01 182.10 284.53 184.18 286.89 183.95 C 289.84 183.53 289.78 181.20 290.69 178.91 C 288.34 179.12 286.05 179.47 283.80 180.19 Z" id="p71" />
<path d="M 296.02 173.07 L 297.89 173.07 C 297.85 177.04 297.85 181.00 297.88 184.97 L 296.03 184.93 C 296.06 180.98 296.06 177.03 296.02 173.07 Z" id="p72" />
<path d="M 302.17 173.54 C 304.66 173.40 308.99 171.99 310.79 174.16 C 312.77 177.29 311.80 182.32 311.44 185.80 C 310.22 182.42 310.86 178.67 309.72 175.36 C 308.55 172.85 304.89 174.22 304.22 176.31 C 303.52 179.07 303.65 182.15 303.59 184.99 L 302.29 184.89 C 302.34 181.11 302.15 177.32 302.17 173.54 Z" id="p73" />
<path d="M 122.79 174.05 C 124.37 174.53 125.48 176.55 126.54 177.74 C 123.45 178.00 120.43 178.01 117.34 177.80 C 118.83 176.17 120.16 173.49 122.79 174.05 Z" id="p74" />
<path d="M 212.36 174.24 C 215.42 173.50 217.96 175.98 217.90 179.00 C 218.24 182.44 213.81 185.21 210.99 183.13 C 207.75 181.06 208.41 175.18 212.36 174.24 Z" id="p75" />
<path d="M 235.29 174.07 C 238.77 173.48 241.12 176.50 240.67 179.78 C 240.40 182.61 237.34 184.80 234.65 183.50 C 230.67 181.86 231.21 175.32 235.29 174.07 Z" id="p76" />
<path d="M 272.31 174.13 C 275.91 173.37 278.51 177.18 277.54 180.50 C 276.90 183.25 274.20 184.56 271.61 183.56 C 267.76 181.90 268.15 175.26 272.31 174.13 Z" id="p77" />
<path d="M 164.71 178.92 C 164.19 180.30 163.84 181.91 162.96 183.11 C 161.41 184.40 159.53 183.44 157.76 183.22 C 157.92 182.16 158.10 181.10 158.28 180.04 C 160.38 179.36 162.53 179.12 164.71 178.92 Z" id="p78" />
<path d="M 290.69 178.91 C 289.78 181.20 289.84 183.53 286.89 183.95 C 284.53 184.18 284.01 182.10 283.80 180.19 C 286.05 179.47 288.34 179.12 290.69 178.91 Z" id="p79" />
<path d="M 311.04 204.05 L 312.89 204.03 C 312.85 210.00 312.85 215.96 312.87 221.92 L 311.04 221.97 C 311.06 216.00 311.06 210.02 311.04 204.05 Z" id="p80" />
<path d="M 257.40 205.09 C 261.16 204.81 265.02 204.78 268.76 205.34 C 265.45 206.45 262.33 206.16 258.89 206.30 C 258.89 208.53 258.89 210.76 258.89 212.98 C 261.98 212.95 264.98 212.84 268.05 213.26 C 265.05 214.52 262.10 214.15 258.89 214.28 C 258.89 216.46 258.89 218.63 258.88 220.81 C 261.93 220.81 264.99 220.82 268.04 220.84 L 268.11 222.01 C 264.50 222.01 260.90 222.01 257.29 222.00 C 257.38 216.37 257.09 210.71 257.40 205.09 Z" id="p81" />
<path d="M 305.17 205.18 C 306.95 204.00 308.12 206.76 306.01 207.17 C 304.87 206.86 304.59 206.20 305.17 205.18 Z" id="p82" />
<path d="M 336.00 205.00 C 378.00 205.00 420.01 205.00 462.01 205.00 C 462.00 212.67 461.99 220.33 462.01 228.00 C 420.01 228.02 378.00 227.96 336.00 228.03 C 336.00 220.35 336.00 212.68 336.00 205.00 Z M 339.00 225.00 C 379.00 225.00 419.00 225.01 459.00 224.99 C 459.00 219.33 459.00 213.66 459.00 208.00 C 419.10 208.08 378.99 207.85 339.12 208.12 C 338.86 213.73 339.07 219.38 339.00 225.00 Z" id="p83" />
<path d="M 339.12 208.12 C 378.99 207.85 419.10 208.08 459.00 208.00 C 459.00 213.66 459.00 219.33 459.00 224.99 C 419.00 225.01 379.00 225.00 339.00 225.00 C 339.07 219.38 338.86 213.73 339.12 208.12 Z" id="p84" />
<path d="M 271.18 210.43 C 274.16 210.00 277.05 210.09 280.04 210.42 C 282.85 210.55 285.56 208.70 287.41 211.65 C 289.03 214.81 288.24 219.55 287.71 222.93 C 286.64 219.65 287.04 216.36 286.44 213.03 C 285.30 210.63 283.07 210.25 281.40 212.38 C 279.81 215.49 280.96 219.56 279.39 222.88 C 278.70 219.47 279.32 215.84 278.48 212.50 C 277.22 209.85 274.12 211.24 273.25 213.32 C 272.56 216.42 272.65 219.66 272.04 222.79 C 271.03 218.82 271.14 214.51 271.18 210.43 Z" id="p85" />
<path d="M 299.88 211.10 C 301.09 214.30 300.55 218.18 300.95 221.57 C 298.02 221.52 294.41 222.95 292.04 220.91 C 291.26 219.21 290.84 217.82 292.21 216.28 C 294.44 215.07 297.36 214.90 299.83 214.43 C 299.10 213.30 298.43 212.19 297.54 211.17 C 295.48 211.15 293.41 211.97 291.39 212.34 C 294.12 210.09 296.62 208.80 299.88 211.10 Z M 293.29 217.04 C 293.11 218.10 292.93 219.17 292.76 220.24 C 294.46 220.39 296.55 221.43 297.95 220.10 C 298.92 218.99 299.18 217.27 299.70 215.91 C 297.53 216.13 295.38 216.37 293.29 217.04 Z" id="p86" />
<path d="M 305.03 210.02 L 306.87 210.07 C 306.70 214.48 307.73 218.99 305.53 222.85 C 304.92 218.59 304.94 214.31 305.03 210.02 Z" id="p87" />
<path d="M 299.70 215.91 C 299.18 217.27 298.92 218.99 297.95 220.10 C 296.55 221.43 294.46 220.39 292.76 220.24 C 292.93 219.17 293.11 218.10 293.29 217.04 C 295.38 216.37 297.53 216.13 299.70 215.91 Z" id="p88" />
<path d="M 262.06 244.21 C 262.51 246.74 262.68 249.29 262.79 251.85 C 265.24 251.38 267.79 249.92 269.81 252.16 C 271.88 255.30 271.01 260.35 270.58 263.85 C 269.05 260.49 270.04 256.62 268.73 253.38 C 267.40 251.07 265.03 252.04 263.49 253.52 C 262.48 256.43 262.67 259.89 262.57 262.95 L 261.25 262.91 C 261.62 256.78 260.49 250.15 262.06 244.21 Z" id="p89" />
<path d="M 247.41 246.08 C 250.23 245.99 254.47 245.19 256.61 247.43 C 258.22 249.03 258.43 252.00 256.68 253.63 C 254.93 255.60 251.41 255.03 248.99 255.35 C 248.93 258.19 248.83 261.03 248.35 263.84 C 247.71 262.29 247.25 260.77 247.27 259.07 C 247.25 254.75 247.14 250.40 247.41 246.08 Z M 248.83 254.08 C 251.28 253.96 253.64 253.67 256.03 253.07 C 256.04 251.39 256.02 249.71 255.98 248.03 C 253.74 247.50 251.49 247.07 249.18 247.08 C 248.87 249.38 248.86 251.75 248.83 254.08 Z" id="p90" />
<path d="M 249.18 247.08 C 251.49 247.07 253.74 247.50 255.98 248.03 C 256.02 249.71 256.04 251.39 256.03 253.07 C 253.64 253.67 251.28 253.96 248.83 254.08 C 248.86 251.75 248.87 249.38 249.18 247.08 Z" id="p91" />
<path d="M 336.00 247.00 C 378.00 247.00 420.01 246.99 462.01 247.00 C 462.03 254.67 461.97 262.34 462.02 270.01 C 420.02 270.00 378.01 269.99 336.00 270.02 C 336.00 262.34 336.00 254.67 336.00 247.00 Z M 339.02 266.98 C 379.01 267.01 419.00 266.98 459.00 267.00 C 459.00 261.33 459.00 255.67 458.99 250.00 C 420.66 250.00 382.32 250.00 343.99 250.00 C 342.36 250.00 340.74 250.00 339.12 250.13 C 338.87 255.73 339.06 261.37 339.02 266.98 Z" id="p92" />
<path d="M 339.12 250.13 C 340.74 250.00 342.36 250.00 343.99 250.00 C 382.32 250.00 420.66 250.00 458.99 250.00 C 459.00 255.67 459.00 261.33 459.00 267.00 C 419.00 266.98 379.01 267.01 339.02 266.98 C 339.06 261.37 338.87 255.73 339.12 250.13 Z" id="p93" />
<path d="M 278.34 251.15 C 282.93 249.87 286.85 253.17 286.23 257.92 C 285.79 262.72 279.83 264.82 276.38 261.58 C 272.99 258.54 274.09 252.81 278.34 251.15 Z M 279.35 252.23 C 275.40 253.23 274.75 259.05 278.00 261.12 C 280.81 263.22 285.23 260.43 284.88 257.00 C 285.01 253.92 282.40 251.56 279.35 252.23 Z" id="p94" />
<path d="M 290.19 251.52 C 292.74 251.35 296.92 250.03 298.83 252.16 C 300.75 255.34 299.79 260.29 299.45 263.79 C 298.24 260.41 298.84 256.68 297.73 253.36 C 296.50 250.87 292.90 252.20 292.22 254.30 C 291.53 257.07 291.66 260.13 291.58 262.98 L 290.28 262.93 C 290.33 259.13 290.16 255.32 290.19 251.52 Z" id="p95" />
<path d="M 309.88 250.95 C 313.53 251.36 313.72 254.07 314.73 256.95 C 311.30 257.04 307.88 257.01 304.45 257.22 C 305.08 258.38 305.67 259.63 306.48 260.67 C 308.50 263.01 312.06 260.68 314.61 260.43 C 313.56 261.21 312.56 261.97 311.41 262.60 C 308.14 264.12 304.18 262.06 303.48 258.52 C 302.49 254.46 305.53 250.36 309.88 250.95 Z M 304.36 255.79 C 307.45 256.01 310.46 256.00 313.54 255.73 C 312.49 254.53 311.38 252.52 309.78 252.05 C 307.12 251.52 305.88 254.13 304.36 255.79 Z" id="p96" />
<path d="M 279.35 252.23 C 282.40 251.56 285.01 253.92 284.88 257.00 C 285.23 260.43 280.81 263.22 278.00 261.12 C 274.75 259.05 275.40 253.23 279.35 252.23 Z" id="p97" />
<path d="M 309.78 252.05 C 311.38 252.52 312.49 254.53 313.54 255.73 C 310.46 256.00 307.45 256.01 304.36 255.79 C 305.88 254.13 307.12 251.52 309.78 252.05 Z" id="p98" />
<path d="M 336.00 280.99 C 378.00 281.00 420.00 281.00 462.00 280.99 C 462.01 305.00 461.99 329.00 462.02 353.00 C 420.01 353.00 378.00 353.00 336.00 353.00 C 336.00 329.00 336.00 305.00 336.00 280.99 Z M 339.10 299.91 C 379.04 299.84 418.97 299.86 458.90 299.90 C 458.87 294.63 458.86 289.35 458.91 284.07 C 419.15 284.25 378.95 283.95 339.21 284.22 C 338.95 289.44 339.20 294.68 339.10 299.91 Z M 339.00 349.98 C 379.00 350.01 419.00 349.98 458.99 350.00 C 459.00 334.34 459.00 318.68 459.00 303.02 C 420.99 302.97 382.99 303.02 344.98 303.00 C 343.04 303.00 341.06 302.97 339.13 303.13 C 338.83 318.72 339.10 334.38 339.00 349.98 Z" id="p99" />
<path d="M 300.04 282.02 L 301.89 282.05 C 301.83 288.00 301.85 293.96 301.88 299.92 L 300.03 299.97 C 300.08 293.98 300.06 288.00 300.04 282.02 Z" id="p100" />
<path d="M 271.28 282.96 C 273.74 282.98 276.28 282.79 278.72 283.16 C 281.31 283.74 282.51 286.21 282.01 288.70 C 281.12 290.26 279.40 291.38 278.02 292.52 C 279.69 295.16 281.33 297.77 282.40 300.73 C 279.28 298.49 277.90 295.33 275.81 292.19 C 274.92 292.15 274.04 292.12 273.15 292.08 C 272.98 295.03 272.83 297.96 272.32 300.87 C 270.23 295.44 271.71 288.72 271.28 282.96 Z M 272.82 291.01 C 274.96 290.81 278.36 291.51 279.87 289.66 C 280.66 288.42 280.16 286.50 280.21 285.08 C 277.89 284.53 275.59 284.06 273.19 284.08 C 272.87 286.39 272.86 288.68 272.82 291.01 Z" id="p101" />
<path d="M 273.19 284.08 C 275.59 284.06 277.89 284.53 280.21 285.08 C 280.16 286.50 280.66 288.42 279.87 289.66 C 278.36 291.51 274.96 290.81 272.82 291.01 C 272.86 288.68 272.87 286.39 273.19 284.08 Z" id="p102" />
<path d="M 339.21 284.22 C 378.95 283.95 419.15 284.25 458.91 284.07 C 458.86 289.35 458.87 294.63 458.90 299.90 C 418.97 299.86 379.04 299.84 339.10 299.91 C 339.20 294.68 338.95 289.44 339.21 284.22 Z M 393.58 284.96 C 393.60 287.22 393.62 289.49 393.66 291.75 C 392.04 291.86 390.41 291.97 388.79 292.10 C 391.99 294.48 395.14 297.36 398.76 299.06 C 402.11 297.03 405.17 294.48 408.28 292.10 C 406.64 291.97 404.99 291.86 403.35 291.75 C 403.39 289.49 403.41 287.23 403.42 284.97 C 400.14 284.94 396.86 284.93 393.58 284.96 Z" id="p103" />
<path d="M 393.58 284.96 C 396.86 284.93 400.14 284.94 403.42 284.97 C 403.41 287.23 403.39 289.49 403.35 291.75 C 404.99 291.86 406.64 291.97 408.28 292.10 C 405.17 294.48 402.11 297.03 398.76 299.06 C 395.14 297.36 391.99 294.48 388.79 292.10 C 390.41 291.97 392.04 291.86 393.66 291.75 C 393.62 289.49 393.60 287.22 393.58 284.96 Z" id="p104" />
<path d="M 288.35 288.16 C 290.27 287.75 292.33 287.70 293.93 289.01 C 296.87 291.13 297.10 296.04 294.48 298.50 C 292.20 300.85 287.93 300.61 285.87 298.06 C 283.10 294.86 284.35 289.70 288.35 288.16 Z M 289.34 289.22 C 285.40 290.21 284.77 296.05 288.00 298.12 C 290.81 300.23 295.19 297.40 294.88 293.99 C 295.00 290.92 292.38 288.60 289.34 289.22 Z" id="p105" />
<path d="M 311.87 287.96 C 315.55 288.41 315.74 290.99 316.70 293.97 C 313.28 294.03 309.87 294.00 306.45 294.18 C 307.49 296.00 307.99 297.83 310.03 298.78 C 312.25 298.66 314.46 297.86 316.65 297.44 C 315.58 298.21 314.57 298.97 313.41 299.59 C 310.43 301.01 306.69 299.42 305.70 296.23 C 304.10 292.12 307.27 287.29 311.87 287.96 Z M 306.38 292.79 C 309.46 293.01 312.44 293.00 315.51 292.72 C 313.99 291.03 312.97 288.55 310.28 289.04 C 308.65 289.64 307.47 291.51 306.38 292.79 Z" id="p106" />
<path d="M 320.50 288.26 C 321.74 286.90 323.77 288.18 322.80 289.84 C 321.55 291.14 319.52 289.95 320.50 288.26 Z" id="p107" />
<path d="M 289.34 289.22 C 292.38 288.60 295.00 290.92 294.88 293.99 C 295.19 297.40 290.81 300.23 288.00 298.12 C 284.77 296.05 285.40 290.21 289.34 289.22 Z" id="p108" />
<path d="M 310.28 289.04 C 312.97 288.55 313.99 291.03 315.51 292.72 C 312.44 293.00 309.46 293.01 306.38 292.79 C 307.47 291.51 308.65 289.64 310.28 289.04 Z" id="p109" />
<path d="M 320.46 298.11 C 321.71 296.85 323.76 298.20 322.83 299.82 C 321.59 301.11 319.60 299.70 320.46 298.11 Z" id="p110" />
<path d="M 339.13 303.13 C 341.06 302.97 343.04 303.00 344.98 303.00 C 382.99 303.02 420.99 302.97 459.00 303.02 C 459.00 318.68 459.00 334.34 458.99 350.00 C 419.00 349.98 379.00 350.01 339.00 349.98 C 339.10 334.38 338.83 318.72 339.13 303.13 Z M 405.60 303.24 C 405.20 305.71 405.07 308.19 404.98 310.68 C 402.17 310.14 399.76 309.03 397.49 311.52 C 394.67 314.20 396.50 319.40 400.18 320.00 C 402.29 320.03 404.40 319.65 406.52 319.55 C 406.19 314.23 407.13 308.33 405.60 303.24 Z M 381.39 320.70 C 382.55 319.32 383.55 317.81 384.68 316.40 C 386.86 315.77 389.37 316.09 391.62 316.00 C 392.76 317.64 393.91 319.26 395.27 320.72 C 393.59 315.10 391.09 309.60 388.50 304.34 C 385.46 309.33 383.10 315.12 381.39 320.70 Z M 428.80 305.14 C 428.24 306.19 428.51 306.87 429.61 307.19 C 431.64 306.77 430.56 303.93 428.80 305.14 Z M 352.89 315.59 C 354.38 315.07 355.86 314.60 357.26 313.85 C 357.47 310.70 356.42 309.59 353.25 310.03 C 351.21 312.01 352.37 313.23 352.89 315.59 Z M 410.32 320.88 C 411.29 317.89 411.00 314.37 412.43 311.60 C 413.59 311.28 414.77 311.03 415.97 310.85 C 416.63 314.15 416.70 317.50 417.50 320.77 C 418.11 317.85 417.78 314.61 418.77 311.81 C 420.04 311.31 421.32 311.02 422.63 310.69 C 423.51 313.98 423.79 317.37 424.65 320.66 C 425.15 316.75 425.28 313.29 423.21 309.80 C 418.76 310.75 414.45 309.77 410.02 310.48 C 409.79 313.94 409.83 317.46 410.32 320.88 Z M 429.34 309.10 C 428.73 313.00 428.75 316.97 429.35 320.87 C 430.73 317.12 430.70 312.85 429.34 309.10 Z M 434.32 320.89 C 435.17 318.07 435.10 315.04 436.07 312.29 C 436.96 310.57 439.97 310.34 440.62 312.37 C 441.18 315.14 441.20 317.99 441.71 320.77 C 442.55 317.67 442.93 314.31 441.72 311.25 C 440.33 308.96 436.22 310.37 434.02 310.57 C 433.78 313.99 433.83 317.49 434.32 320.89 Z M 383.40 330.16 C 382.83 334.20 382.56 338.61 383.30 342.64 C 384.56 346.58 389.89 347.12 392.71 344.63 C 394.02 343.23 394.14 341.56 394.29 339.74 C 394.44 336.44 394.49 333.27 393.34 330.12 C 392.61 334.19 393.38 338.47 392.50 342.46 C 391.04 345.86 385.91 345.86 384.65 342.35 C 383.86 338.26 384.84 334.25 383.40 330.16 Z M 352.90 341.58 C 354.39 341.07 355.87 340.60 357.27 339.86 C 357.41 337.49 356.84 335.63 354.07 335.98 C 351.04 336.57 352.27 339.50 352.90 341.58 Z M 403.33 342.77 C 402.87 343.52 402.42 344.27 401.96 345.02 C 400.05 344.83 398.16 344.60 396.25 344.53 C 398.33 345.62 400.16 346.50 402.57 345.90 C 403.62 344.96 404.19 343.43 404.83 342.19 C 402.51 340.97 400.15 339.84 397.86 338.55 C 400.00 336.95 402.18 337.40 404.67 337.11 C 402.84 336.47 401.22 335.73 399.22 335.94 C 397.92 336.82 397.05 337.95 397.33 339.59 C 399.03 341.02 401.35 341.78 403.33 342.77 Z M 416.00 343.67 C 414.07 344.11 412.14 344.77 410.17 345.02 C 408.95 344.00 407.98 342.58 407.01 341.32 C 410.19 341.05 413.38 340.94 416.55 340.67 C 415.80 339.38 415.14 337.88 414.08 336.82 C 411.59 335.09 407.92 335.71 406.71 338.72 C 404.95 341.75 407.43 346.25 411.01 346.08 C 413.03 346.26 414.42 344.70 416.00 343.67 Z M 419.36 346.90 C 420.23 344.27 420.32 341.59 420.50 338.86 C 421.83 337.86 423.18 336.90 424.50 335.90 C 422.67 336.07 420.82 336.25 419.01 336.58 C 418.75 339.99 418.85 343.51 419.36 346.90 Z" id="p111" />
<path d="M 405.60 303.24 C 407.13 308.33 406.19 314.23 406.52 319.55 C 404.40 319.65 402.29 320.03 400.18 320.00 C 396.50 319.40 394.67 314.20 397.49 311.52 C 399.76 309.03 402.17 310.14 404.98 310.68 C 405.07 308.19 405.20 305.71 405.60 303.24 Z M 400.31 311.07 C 397.07 311.96 396.64 317.17 399.60 318.57 C 402.52 320.15 405.95 317.39 405.17 314.15 C 404.71 311.79 402.63 310.56 400.31 311.07 Z" id="p112" />
<path d="M 388.50 304.34 C 391.09 309.60 393.59 315.10 395.27 320.72 C 393.91 319.26 392.76 317.64 391.62 316.00 C 389.37 316.09 386.86 315.77 384.68 316.40 C 383.55 317.81 382.55 319.32 381.39 320.70 C 383.10 315.12 385.46 309.33 388.50 304.34 Z M 384.84 314.97 C 387.16 314.98 389.48 314.99 391.80 315.00 C 390.65 312.22 389.57 309.42 388.41 306.64 C 387.05 309.34 385.94 312.15 384.84 314.97 Z" id="p113" />
<path d="M 428.80 305.14 C 430.56 303.93 431.64 306.77 429.61 307.19 C 428.51 306.87 428.24 306.19 428.80 305.14 Z" id="p114" />
<path d="M 388.41 306.64 C 389.57 309.42 390.65 312.22 391.80 315.00 C 389.48 314.99 387.16 314.98 384.84 314.97 C 385.94 312.15 387.05 309.34 388.41 306.64 Z" id="p115" />
<path d="M 353.25 310.03 C 356.42 309.59 357.47 310.70 357.26 313.85 C 355.86 314.60 354.38 315.07 352.89 315.59 C 352.37 313.23 351.21 312.01 353.25 310.03 Z" id="p116" />
<path d="M 410.02 310.48 C 414.45 309.77 418.76 310.75 423.21 309.80 C 425.28 313.29 425.15 316.75 424.65 320.66 C 423.79 317.37 423.51 313.98 422.63 310.69 C 421.32 311.02 420.04 311.31 418.77 311.81 C 417.78 314.61 418.11 317.85 417.50 320.77 C 416.70 317.50 416.63 314.15 415.97 310.85 C 414.77 311.03 413.59 311.28 412.43 311.60 C 411.00 314.37 411.29 317.89 410.32 320.88 C 409.83 317.46 409.79 313.94 410.02 310.48 Z" id="p117" />
<path d="M 429.34 309.10 C 430.70 312.85 430.73 317.12 429.35 320.87 C 428.75 316.97 428.73 313.00 429.34 309.10 Z" id="p118" />
<path d="M 434.02 310.57 C 436.22 310.37 440.33 308.96 441.72 311.25 C 442.93 314.31 442.55 317.67 441.71 320.77 C 441.20 317.99 441.18 315.14 440.62 312.37 C 439.97 310.34 436.96 310.57 436.07 312.29 C 435.10 315.04 435.17 318.07 434.32 320.89 C 433.83 317.49 433.78 313.99 434.02 310.57 Z" id="p119" />
<path d="M 400.31 311.07 C 402.63 310.56 404.71 311.79 405.17 314.15 C 405.95 317.39 402.52 320.15 399.60 318.57 C 396.64 317.17 397.07 311.96 400.31 311.07 Z" id="p120" />
<path d="M 383.40 330.16 C 384.84 334.25 383.86 338.26 384.65 342.35 C 385.91 345.86 391.04 345.86 392.50 342.46 C 393.38 338.47 392.61 334.19 393.34 330.12 C 394.49 333.27 394.44 336.44 394.29 339.74 C 394.14 341.56 394.02 343.23 392.71 344.63 C 389.89 347.12 384.56 346.58 383.30 342.64 C 382.56 338.61 382.83 334.20 383.40 330.16 Z" id="p121" />
<path d="M 354.07 335.98 C 356.84 335.63 357.41 337.49 357.27 339.86 C 355.87 340.60 354.39 341.07 352.90 341.58 C 352.27 339.50 351.04 336.57 354.07 335.98 Z" id="p122" />
<path d="M 399.22 335.94 C 401.22 335.73 402.84 336.47 404.67 337.11 C 402.18 337.40 400.00 336.95 397.86 338.55 C 400.15 339.84 402.51 340.97 404.83 342.19 C 404.19 343.43 403.62 344.96 402.57 345.90 C 400.16 346.50 398.33 345.62 396.25 344.53 C 398.16 344.60 400.05 344.83 401.96 345.02 C 402.42 344.27 402.87 343.52 403.33 342.77 C 401.35 341.78 399.03 341.02 397.33 339.59 C 397.05 337.95 397.92 336.82 399.22 335.94 Z" id="p123" />
<path d="M 414.08 336.82 C 415.14 337.88 415.80 339.38 416.55 340.67 C 413.38 340.94 410.19 341.05 407.01 341.32 C 407.98 342.58 408.95 344.00 410.17 345.02 C 412.14 344.77 414.07 344.11 416.00 343.67 C 414.42 344.70 413.03 346.26 411.01 346.08 C 407.43 346.25 404.95 341.75 406.71 338.72 C 407.92 335.71 411.59 335.09 414.08 336.82 Z M 406.90 339.59 C 409.62 339.93 412.34 339.98 415.07 339.89 C 414.14 339.03 413.12 337.13 411.77 337.05 C 409.66 336.53 408.46 338.52 406.90 339.59 Z" id="p124" />
<path d="M 419.01 336.58 C 420.82 336.25 422.67 336.07 424.50 335.90 C 423.18 336.90 421.83 337.86 420.50 338.86 C 420.32 341.59 420.23 344.27 419.36 346.90 C 418.85 343.51 418.75 339.99 419.01 336.58 Z" id="p125" />
<path d="M 411.77 337.05 C 413.12 337.13 414.14 339.03 415.07 339.89 C 412.34 339.98 409.62 339.93 406.90 339.59 C 408.46 338.52 409.66 336.53 411.77 337.05 Z" id="p126" />
<path d="M 502.00 1147.26 C 511.35 1146.96 521.25 1146.75 530.44 1148.59 C 539.96 1150.37 548.95 1153.45 557.88 1157.14 C 561.81 1158.77 565.59 1160.73 569.14 1163.09 C 563.70 1161.32 558.74 1158.61 553.43 1156.56 C 541.38 1151.91 529.02 1148.46 516.02 1148.22 C 510.58 1148.16 505.07 1148.00 499.65 1148.56 C 494.47 1149.10 489.76 1150.72 484.71 1151.81 C 490.11 1148.77 495.85 1147.47 502.00 1147.26 Z" id="p127" />
<path d="M 481.19 1152.79 C 483.98 1152.22 482.35 1155.86 480.42 1154.61 C 480.13 1153.92 480.39 1153.32 481.19 1152.79 Z" id="p128" />
<path d="M 476.89 1156.77 C 473.42 1160.74 469.57 1164.18 466.36 1168.37 C 459.64 1177.13 454.95 1186.79 451.01 1197.04 C 443.39 1216.97 439.60 1238.26 436.18 1259.25 C 435.04 1266.14 434.50 1273.18 432.99 1280.00 L 432.11 1280.00 C 435.34 1255.37 439.12 1230.24 446.53 1206.48 C 451.04 1192.56 456.63 1179.29 465.68 1167.65 C 468.88 1163.44 472.55 1159.81 476.89 1156.77 Z" id="p129" />
<path d="M 569.96 1163.05 C 574.89 1165.55 579.32 1166.96 584.90 1167.25 C 607.10 1169.02 628.77 1175.56 647.82 1187.19 C 662.36 1195.95 674.89 1207.24 686.05 1219.96 C 697.27 1232.69 708.15 1245.66 720.00 1257.81 L 720.00 1280.00 L 481.87 1280.00 C 483.47 1273.60 484.17 1266.99 485.55 1260.53 C 488.83 1244.66 493.08 1228.46 499.55 1213.56 C 503.82 1203.53 509.37 1193.76 516.39 1185.39 C 524.19 1176.24 534.21 1169.32 546.22 1167.21 C 554.90 1165.77 564.05 1166.42 572.84 1166.15 C 571.88 1165.12 570.91 1164.09 569.96 1163.05 Z" id="p130" />
</defs>
<g stroke-width="10pt">
<use stroke="#2d3947" xlink:href="#p0" />
<use stroke="#ffffff" xlink:href="#p1" />
<use stroke="#ffffff" xlink:href="#p2" />
<use stroke="#ffffff" xlink:href="#p3" />
<use stroke="#2d3947" xlink:href="#p4" />
<use stroke="#ffffff" xlink:href="#p5" />
<use stroke="#ffffff" xlink:href="#p6" />
<use stroke="#ffffff" xlink:href="#p7" />
<use stroke="#ffffff" xlink:href="#p8" />
<use stroke="#ffffff" xlink:href="#p9" />
<use stroke="#ffffff" xlink:href="#p10" />
<use stroke="#ffffff" xlink:href="#p11" />
<use stroke="#ffffff" xlink:href="#p12" />
<use stroke="#ffffff" xlink:href="#p13" />
<use stroke="#ffffff" xlink:href="#p14" />
<use stroke="#ffffff" xlink:href="#p15" />
<use stroke="#ffffff" xlink:href="#p16" />
<use stroke="#2d3947" xlink:href="#p17" />
<use stroke="#2d3947" xlink:href="#p18" />
<use stroke="#2d3947" xlink:href="#p19" />
<use stroke="#2d3947" xlink:href="#p20" />
<use stroke="#2d3947" xlink:href="#p21" />
<use stroke="#2d3947" xlink:href="#p22" />
<use stroke="#ffffff" xlink:href="#p23" />
<use stroke="#2d3947" xlink:href="#p24" />
<use stroke="#2d3947" xlink:href="#p25" />
<use stroke="#ffffff" xlink:href="#p26" />
<use stroke="#2d3947" xlink:href="#p27" />
<use stroke="#2d3947" xlink:href="#p28" />
<use stroke="#2d3947" xlink:href="#p29" />
<use stroke="#2d3947" xlink:href="#p30" />
<use stroke="#2d3947" xlink:href="#p31" />
<use stroke="#2d3947" xlink:href="#p32" />
<use stroke="#2d3947" xlink:href="#p33" />
<use stroke="#ffffff" xlink:href="#p34" />
<use stroke="#ffffff" xlink:href="#p35" />
<use stroke="#ffffff" xlink:href="#p36" />
<use stroke="#5a82ca" xlink:href="#p37" />
<use stroke="#2d3947" xlink:href="#p38" />
<use stroke="#2d3947" xlink:href="#p39" />
<use stroke="#2d3947" xlink:href="#p40" />
<use stroke="#ffffff" xlink:href="#p41" />
<use stroke="#ffffff" xlink:href="#p42" />
<use stroke="#2d3947" xlink:href="#p43" />
<use stroke="#2d3947" xlink:href="#p44" />
<use stroke="#2d3947" xlink:href="#p45" />
<use stroke="#2d3947" xlink:href="#p46" />
<use stroke="#2d3947" xlink:href="#p47" />
<use stroke="#2d3947" xlink:href="#p48" />
<use stroke="#ffffff" xlink:href="#p49" />
<use stroke="#ffffff" xlink:href="#p50" />
<use stroke="#ffffff" xlink:href="#p51" />
<use stroke="#2d3947" xlink:href="#p52" />
<use stroke="#2d3947" xlink:href="#p53" />
<use stroke="#2d3947" xlink:href="#p54" />
<use stroke="#2d3947" xlink:href="#p55" />
<use stroke="#2d3947" xlink:href="#p56" />
<use stroke="#ffffff" xlink:href="#p57" />
<use stroke="#2d3947" xlink:href="#p58" />
<use stroke="#2d3947" xlink:href="#p59" />
<use stroke="#ffffff" xlink:href="#p60" />
<use stroke="#2d3947" xlink:href="#p61" />
<use stroke="#2d3947" xlink:href="#p62" />
<use stroke="#2d3947" xlink:href="#p63" />
<use stroke="#2d3947" xlink:href="#p64" />
<use stroke="#2d3947" xlink:href="#p65" />
<use stroke="#2d3947" xlink:href="#p66" />
<use stroke="#2d3947" xlink:href="#p67" />
<use stroke="#2d3947" xlink:href="#p68" />
<use stroke="#2d3947" xlink:href="#p69" />
<use stroke="#2d3947" xlink:href="#p70" />
<use stroke="#2d3947" xlink:href="#p71" />
<use stroke="#70ad46" xlink:href="#p72" />
<use stroke="#2d3947" xlink:href="#p73" />
<use stroke="#ffffff" xlink:href="#p74" />
<use stroke="#ffffff" xlink:href="#p75" />
<use stroke="#ffffff" xlink:href="#p76" />
<use stroke="#ffffff" xlink:href="#p77" />
<use stroke="#ffffff" xlink:href="#p78" />
<use stroke="#ffffff" xlink:href="#p79" />
<use stroke="#70ad46" xlink:href="#p80" />
<use stroke="#2d3947" xlink:href="#p81" />
<use stroke="#2d3947" xlink:href="#p82" />
<use stroke="#2d3947" xlink:href="#p83" />
<use stroke="#ffffff" xlink:href="#p84" />
<use stroke="#2d3947" xlink:href="#p85" />
<use stroke="#2d3947" xlink:href="#p86" />
<use stroke="#70ad46" xlink:href="#p87" />
<use stroke="#ffffff" xlink:href="#p88" />
<use stroke="#2d3947" xlink:href="#p89" />
<use stroke="#2d3947" xlink:href="#p90" />
<use stroke="#ffffff" xlink:href="#p91" />
<use stroke="#2d3947" xlink:href="#p92" />
<use stroke="#ffffff" xlink:href="#p93" />
<use stroke="#2d3947" xlink:href="#p94" />
<use stroke="#2d3947" xlink:href="#p95" />
<use stroke="#2d3947" xlink:href="#p96" />
<use stroke="#ffffff" xlink:href="#p97" />
<use stroke="#ffffff" xlink:href="#p98" />
<use stroke="#2d3947" xlink:href="#p99" />
<use stroke="#70ad46" xlink:href="#p100" />
<use stroke="#2d3947" xlink:href="#p101" />
<use stroke="#ffffff" xlink:href="#p102" />
<use stroke="#ffffff" xlink:href="#p103" />
<use stroke="#2d3947" xlink:href="#p104" />
<use stroke="#2d3947" xlink:href="#p105" />
<use stroke="#2d3947" xlink:href="#p106" />
<use stroke="#2d3947" xlink:href="#p107" />
<use stroke="#ffffff" xlink:href="#p108" />
<use stroke="#ffffff" xlink:href="#p109" />
<use stroke="#2d3947" xlink:href="#p110" />
<use stroke="#ffffff" xlink:href="#p111" />
<use stroke="#2d3947" xlink:href="#p112" />
<use stroke="#2d3947" xlink:href="#p113" />
<use stroke="#2d3947" xlink:href="#p114" />
<use stroke="#ffffff" xlink:href="#p115" />
<use stroke="#2d3947" xlink:href="#p116" />
<use stroke="#2d3947" xlink:href="#p117" />
<use stroke="#2d3947" xlink:href="#p118" />
<use stroke="#2d3947" xlink:href="#p119" />
<use stroke="#ffffff" xlink:href="#p120" />
<use stroke="#2d3947" xlink:href="#p121" />
<use stroke="#2d3947" xlink:href="#p122" />
<use stroke="#2d3947" xlink:href="#p123" />
<use stroke="#2d3947" xlink:href="#p124" />
<use stroke="#2d3947" xlink:href="#p125" />
<use stroke="#ffffff" xlink:href="#p126" />
<use stroke="#70ad46" xlink:href="#p127" />
<use stroke="#ffffff" xlink:href="#p128" />
<use stroke="#70ad46" xlink:href="#p129" />
<use stroke="#70ad46" xlink:href="#p130" />
</g>
<g>
<use fill="#2d3947" xlink:href="#p0" />
<use fill="#ffffff" xlink:href="#p1" />
<use fill="#ffffff" xlink:href="#p2" />
<use fill="#ffffff" xlink:href="#p3" />
<use fill="#2d3947" xlink:href="#p4" />
<use fill="#ffffff" xlink:href="#p5" />
<use fill="#ffffff" xlink:href="#p6" />
<use fill="#ffffff" xlink:href="#p7" />
<use fill="#ffffff" xlink:href="#p8" />
<use fill="#ffffff" xlink:href="#p9" />
<use fill="#ffffff" xlink:href="#p10" />
<use fill="#ffffff" xlink:href="#p11" />
<use fill="#ffffff" xlink:href="#p12" />
<use fill="#ffffff" xlink:href="#p13" />
<use fill="#ffffff" xlink:href="#p14" />
<use fill="#ffffff" xlink:href="#p15" />
<use fill="#ffffff" xlink:href="#p16" />
<use fill="#2d3947" xlink:href="#p17" />
<use fill="#2d3947" xlink:href="#p18" />
<use fill="#2d3947" xlink:href="#p19" />
<use fill="#2d3947" xlink:href="#p20" />
<use fill="#2d3947" xlink:href="#p21" />
<use fill="#2d3947" xlink:href="#p22" />
<use fill="#ffffff" xlink:href="#p23" />
<use fill="#2d3947" xlink:href="#p24" />
<use fill="#2d3947" xlink:href="#p25" />
<use fill="#ffffff" xlink:href="#p26" />
<use fill="#2d3947" xlink:href="#p27" />
<use fill="#2d3947" xlink:href="#p28" />
<use fill="#2d3947" xlink:href="#p29" />
<use fill="#2d3947" xlink:href="#p30" />
<use fill="#2d3947" xlink:href="#p31" />
<use fill="#2d3947" xlink:href="#p32" />
<use fill="#2d3947" xlink:href="#p33" />
<use fill="#ffffff" xlink:href="#p34" />
<use fill="#ffffff" xlink:href="#p35" />
<use fill="#ffffff" xlink:href="#p36" />
<use fill="#5a82ca" xlink:href="#p37" />
<use fill="#2d3947" xlink:href="#p38" />
<use fill="#2d3947" xlink:href="#p39" />
<use fill="#2d3947" xlink:href="#p40" />
<use fill="#ffffff" xlink:href="#p41" />
<use fill="#ffffff" xlink:href="#p42" />
<use fill="#2d3947" xlink:href="#p43" />
<use fill="#2d3947" xlink:href="#p44" />
<use fill="#2d3947" xlink:href="#p45" />
<use fill="#2d3947" xlink:href="#p46" />
<use fill="#2d3947" xlink:href="#p47" />
<use fill="#2d3947" xlink:href="#p48" />
<use fill="#ffffff" xlink:href="#p49" />
<use fill="#ffffff" xlink:href="#p50" />
<use fill="#ffffff" xlink:href="#p51" />
<use fill="#2d3947" xlink:href="#p52" />
<use fill="#2d3947" xlink:href="#p53" />
<use fill="#2d3947" xlink:href="#p54" />
<use fill="#2d3947" xlink:href="#p55" />
<use fill="#2d3947" xlink:href="#p56" />
<use fill="#ffffff" xlink:href="#p57" />
<use fill="#2d3947" xlink:href="#p58" />
<use fill="#2d3947" xlink:href="#p59" />
<use fill="#ffffff" xlink:href="#p60" />
<use fill="#2d3947" xlink:href="#p61" />
<use fill="#2d3947" xlink:href="#p62" />
<use fill="#2d3947" xlink:href="#p63" />
<use fill="#2d3947" xlink:href="#p64" />
<use fill="#2d3947" xlink:href="#p65" />
<use fill="#2d3947" xlink:href="#p66" />
<use fill="#2d3947" xlink:href="#p67" />
<use fill="#2d3947" xlink:href="#p68" />
<use fill="#2d3947" xlink:href="#p69" />
<use fill="#2d3947" xlink:href="#p70" />
<use fill="#2d3947" xlink:href="#p71" />
<use fill="#70ad46" xlink:href="#p72" />
<use fill="#2d3947" xlink:href="#p73" />
<use fill="#ffffff" xlink:href="#p74" />
<use fill="#ffffff" xlink:href="#p75" />
<use fill="#ffffff" xlink:href="#p76" />
<use fill="#ffffff" xlink:href="#p77" />
<use fill="#ffffff" xlink:href="#p78" />
<use fill="#ffffff" xlink:href="#p79" />
<use fill="#70ad46" xlink:href="#p80" />
<use fill="#2d3947" xlink:href="#p81" />
<use fill="#2d3947" xlink:href="#p82" />
<use fill="#2d3947" xlink:href="#p83" />
<use fill="#ffffff" xlink:href="#p84" />
<use fill="#2d3947" xlink:href="#p85" />
<use fill="#2d3947" xlink:href="#p86" />
<use fill="#70ad46" xlink:href="#p87" />
<use fill="#ffffff" xlink:href="#p88" />
<use fill="#2d3947" xlink:href="#p89" />
<use fill="#2d3947" xlink:href="#p90" />
<use fill="#ffffff" xlink:href="#p91" />
<use fill="#2d3947" xlink:href="#p92" />
<use fill="#ffffff" xlink:href="#p93" />
<use fill="#2d3947" xlink:href="#p94" />
<use fill="#2d3947" xlink:href="#p95" />
<use fill="#2d3947" xlink:href="#p96" />
<use fill="#ffffff" xlink:href="#p97" />
<use fill="#ffffff" xlink:href="#p98" />
<use fill="#2d3947" xlink:href="#p99" />
<use fill="#70ad46" xlink:href="#p100" />
<use fill="#2d3947" xlink:href="#p101" />
<use fill="#ffffff" xlink:href="#p102" />
<use fill="#ffffff" xlink:href="#p103" />
<use fill="#2d3947" xlink:href="#p104" />
<use fill="#2d3947" xlink:href="#p105" />
<use fill="#2d3947" xlink:href="#p106" />
<use fill="#2d3947" xlink:href="#p107" />
<use fill="#ffffff" xlink:href="#p108" />
<use fill="#ffffff" xlink:href="#p109" />
<use fill="#2d3947" xlink:href="#p110" />
<use fill="#ffffff" xlink:href="#p111" />
<use fill="#2d3947" xlink:href="#p112" />
<use fill="#2d3947" xlink:href="#p113" />
<use fill="#2d3947" xlink:href="#p114" />
<use fill="#ffffff" xlink:href="#p115" />
<use fill="#2d3947" xlink:href="#p116" />
<use fill="#2d3947" xlink:href="#p117" />
<use fill="#2d3947" xlink:href="#p118" />
<use fill="#2d3947" xlink:href="#p119" />
<use fill="#ffffff" xlink:href="#p120" />
<use fill="#2d3947" xlink:href="#p121" />
<use fill="#2d3947" xlink:href="#p122" />
<use fill="#2d3947" xlink:href="#p123" />
<use fill="#2d3947" xlink:href="#p124" />
<use fill="#2d3947" xlink:href="#p125" />
<use fill="#ffffff" xlink:href="#p126" />
<use fill="#70ad46" xlink:href="#p127" />
<use fill="#ffffff" xlink:href="#p128" />
<use fill="#70ad46" xlink:href="#p129" />
<use fill="#70ad46" xlink:href="#p130" />
</g>
</svg>